<svg xmlns="http://www.w3.org/2000/svg" viewBox="0 0 999.99997 1376.3433" height="1376.3" width="1000" shape-rendering="crispEdges">
    <defs>
        <filter id="a" color-interpolation-filters="sRGB">
            <feBlend in2="BackgroundImage" mode="darken"/>
        </filter>
    </defs>
    <path d="M421.57 385.13c-.213-.018-.423-.007-.598.117-2.753 1.37-.917 5.077 1.104 6.194 16.955 17.793 32.44 37.765 41.4 60.805 3.176 10.362 2.167 21.337 1.531 32.012-.924 8.097-2.862 16.73-8.242 23.14-5.915 4.912-14.216 3.018-21.027 1.573-16.136-3.415-30.637-11.838-44.662-20.283-3.581.779-3.676 6.502-.131 7.377 17.719 13.07 39.389 22.598 61.801 21.072 5.089-.495 9.814-3.552 11.984-8.242 9.373-15.13 9.74-33.988 6.873-51.05-3.185-16.92-11.984-32.326-23.322-45.112-7.866-9.913-16.419-19.336-26.084-27.531-.196 0-.414-.052-.627-.07zm-69.943.025c-6.052 2.221-8.923 8.605-13.709 12.506-14.605 15.91-29.708 32.996-35.137 54.465-4.445 17.186-4.261 36.14 3.14 52.484 2.636 5.348 6.45 11.825 13.118 12.193 23.204 2.265 45.972-7.544 63.89-21.689 3.154-1.059 2.071-5.953-1.027-6.148-3.002-.069-4.744 3.043-7.398 3.988-15.7 9.727-33.492 17.777-52.264 17.371-7.431-1.491-11.062-9.385-12.322-16.146-3.215-13.026-3.27-26.695-.932-39.783 7.165-21.716 21.663-40.003 36.445-57.053 3.128-3.174 6.578-6.336 8.178-10.613-.35-.794-1.002-1.683-1.982-1.574zm-21.4 4.026c-11.297 2.022-21.221 8.224-31.707 12.553-20.6 9.92-41.184 20.173-60.143 33.012-3.46 2.818-8.003 6.682-6.994 11.67 1.648 5.828 8.48 8.187 13.982 7.191 14.22-.69 27.074-7.583 40.537-11.469 5.441-1.815 11.142-3.367 15.857-6.781.842-3.15-3.282-5.201-5.643-3.373-18.317 5.082-35.639 14.024-54.586 16.303-2.65-.097-5.232-3.37-2.867-5.566 4.418-5.606 11.536-7.894 17.428-11.541 24.74-12.962 49.79-25.502 75.662-35.984 2.322-1.033 2.648-4.538.186-5.62a3.527 3.527 0 0 0-1.713-.394zm112.14.035v.002c-3.638-.136-3.933 5.964-.348 6.29 9.017 3.787 18.108 7.387 26.877 11.741 20.708 9.732 41.321 19.792 61.053 31.39 2.495 1.696 6.58 4.611 4.78 8.02-3.363 3.283-8.262.737-12.174.172-15.674-3.718-30.378-10.813-46.012-14.762-1.89-.584-4.636-1.136-5.114 1.422-.586 2.339 1.583 4.404 3.828 4.383 17.218 5.756 34.068 13.463 52.22 15.854 5.323.445 12.187-1.083 14.032-6.8 1.514-5.198-3.266-9.304-6.914-12.138-11.762-9.243-25.739-14.968-38.64-22.36-16.878-8.807-33.942-17.61-52.202-23.189-.461-.023-.926.01-1.386-.025zm36.057 91.693c-4.114.242-5.628 6.387-2.266 8.648 11.376 16.326 15.967 38.256 8.36 56.94-9.721 19.077-28.273 32.106-47.9 39.257-13.858 5.716-28.481 9.295-43.07 12.344-3.17 1.68-1.15 6.68 2.185 6.438 5.398.6 10.676-1.276 15.975-1.998 13.917-3.006 26.876-9.235 40.23-13.824 3.859-.072 6.155 4.127 5.173 7.57-.698 10.917-6.62 20.636-11.369 30.244-6.41 11.086-14.213 21.758-24.11 29.953-3.397.183-3.828-4.254-5.57-6.224-7.66-13.432-12.493-28.131-18.74-42.252-2.768-1.988-6.369 2.292-4.07 4.718 6.316 17.703 14.12 35.01 23.899 51.035 3.264 2.671 7.433-.222 9.714-2.806 13.1-12.53 23.33-27.827 31.45-43.955 4.18-9.39 5.723-19.86 4.753-30.064.245-4.652 3.835-8.08 7.625-10.24 11.165-8.73 21.943-19.993 24.365-34.518 4.031-16.702.916-34.785-7.535-49.568-2.221-4.105-4.297-8.856-8.172-11.586a3.008 3.008 0 0 0-.926-.112zm-183.83.11a3.218 3.218 0 0 0-.52.033c-5.27 2.269-6.18 8.666-9.289 12.875-7.579 14.257-10.69 31.096-7.17 46.979 2.5 13.413 10.835 25.179 21.73 33.184 3.338 2.92 7.574 5.374 9.806 9.238 2.005 9.277-.891 19.402 3.61 28.178 7.14 19.468 20.255 36.135 34.706 50.73 2.367 2.301 6.896 3.79 9.213.658 3.57-5.219 5.657-11.196 8.805-16.652 5.879-11.813 11.54-23.843 14.994-36.623-1.046-3.14-6.28-2.297-6.281.996-5.85 15.71-11.651 31.667-21.14 45.604-3.126 1.084-4.75-2.9-6.796-4.51-14.7-14.98-25.813-33.796-30.457-54.322-.745-3.756 1.215-9.35 5.896-8.47 5.503 1.031 10.327 4.213 15.625 5.953 13.063 5.165 26.863 9.689 41.037 9.562 3.077-.642 3.893-5.91.446-6.568-7.367-1.582-14.845-2.707-21.977-5.219-21.712-6.188-44.18-15.059-59.277-32.73-7.45-8.331-12.793-19.035-12.7-30.279-.71-15.218 4.896-30.503 13.73-42.908 1.03-2.52-1.405-5.655-3.991-5.707zm83.158 60.79c-2.444 0-2.444 4.664 0 4.664h4.715c-.35.324-.697.656-1.045.985-.62.544-1.16 1.228-1.729 1.857a33.162 33.162 0 0 0-1.748 2.055c-.425.56-.859 1.115-1.345 1.578-.354.47-.93.69-1.225 1.246-.181.342-.31.73-.467 1.094.151.784.151 1.65.451 2.352.162.378.541.488.838.662.587.343 1.44.044 2.036-.123.892-.292 1.772-.643 2.677-.856.648-.19 1.293-.388 1.953-.478.568-.02 1.124-.18 1.686-.268a13.715 13.715 0 0 1 1.615-.11c.554-.059 1.097-.22 1.65-.286.443-.045.885-.05 1.329-.051.583.019 1.159.008 1.734-.137 2.398-.636 1.732-5.212-.666-4.576-.306.094-.725.034-1.088.05-.543.005-1.085.011-1.627.07a9.31 9.31 0 0 0-1.389.269c-.656.014-1.312.043-1.964.14-.546.09-1.083.242-1.633.262.289-.33.58-.654.898-.936.666-.632 1.32-1.286 2.035-1.818.688-.53 1.383-1.04 2.08-1.545.534-.359 1.05-.757 1.57-1.148.335-.27.772-.56.952-1.063.182-.507.392-1.083.314-1.637-.223-1.593-.955-2.123-1.949-2.252h-10.658zM386.47 290.63c-.46-.008-.93-.006-1.42.006-1.307.031-2.757.134-4.535.305-13.186 1.75-25.821 8.807-33.438 19.87-9.793 13.82-12.384 32.093-7.545 48.245 3.236 11.837 10.679 22.546 22.279 27.588 8.332 3.463 17.033 5.612 25.922 5.914 8.123.05 17.498-2.997 24.887-6.09 10.119-5.13 16.24-12.722 19.48-22.855 5.811-16.241 5.115-35.303-4.416-50.029-6.535-10.728-17.338-18.928-29.764-21.361-5.524-1.005-8.233-1.538-11.451-1.592zm-1.303 5.61c4.944-.088 9.924.673 15.047 2.01 10.872 2.474 17.004 8.494 22.707 18.216 8.35 13.131 10.413 30.703 3.287 44.684-2.458 2.747-6.478.983-8.293-1.568-8.923-8.065-17.915-16.092-27.256-23.672.658-.644 1.332-1.268 1.977-1.926.704-2.805-2.875-3.876-4.795-2.494-.505.305-.982.644-1.465.976-.352-.276-.694-.565-1.047-.84-1.654-1.455-5.15-.615-4.89 1.71.475.923 1.063 1.742 1.693 2.523-3.24 2.86-6.274 5.971-9.83 8.416-7.338 6.024-13.797 13.344-21.779 18.402-4.425.221-5.402-4.925-6.357-8.162-6.21-21.386 5.36-46.986 26.174-55.188 4.975-2.064 9.884-3 14.828-3.088zm1.229 43.7c2.5 1.982 5.18 3.806 7.306 6.145 8.937 7.722 18.776 14.573 26.701 23.352.427 4.489-4.414 6.82-7.408 9.113-7.599 4.723-20.588 8.052-25.045 8.024-3.868.196-24.253-3.967-33.383-12.275-2.036-1.867-2.952-5.473-.152-7.166 10.236-9.52 21.63-17.77 31.98-27.191zM253.25 201.08c-5.148.527-9.453 7.343-5.795 11.717 5.526 9.373 12.175 18.051 17.64 27.443-7.44-3.84-13.327-11.318-22.05-12.338-6.726.073-10.17 9.917-4.92 14.18 14.69 11.615 31.032 20.99 46.285 31.857 15.863 10.753 31.27 22.205 45.883 34.6 2.766 1.938 7.03 1.64 8.885-1.42 5.762-6.281 12.813-11.586 17.613-18.635.787-5.697-5.019-9.014-7.535-13.346-7.982-10.318-13.928-22.102-21.69-32.516-4.282-3.027-11.823.35-11.042 5.947-.016 6.192 2.9 12.228 3.943 17.982-21.737-19.26-39.657-42.33-60.557-62.408-1.969-1.444-4.176-2.85-6.66-3.064zm266.01.13a6.265 6.265 0 0 0-.857.032c-11.748 5.353-18.083 17.374-27.236 25.85-12.555 13.574-25.077 27.218-38.752 39.668 1.309-7.084 5.818-14.462 3.191-21.82-2.674-5.344-11.823-3.923-13.26 1.7-7.672 13.886-17.529 26.346-26.23 39.57-.013 5.998 6.345 8.727 9.664 12.763 3.745 3.829 11.046 10.894 11.56 10.734 9.308-1.485 14.161-10.095 21.767-14.629 23.814-17.98 49.15-33.995 73.523-51.096 3.619-2.331 6.226-7.034 4.156-11.227-1.572-3.963-6.54-6.147-10.393-4.1-6.895 2.45-11.873 8.171-18.31 11.444 5.809-10.268 13.58-19.405 18.796-29.982.903-4.407-3.332-8.775-7.619-8.907zm-1.727 6.661c2.997-.124 2.948 4.16.98 5.527-7.094 9.685-14.258 19.42-20.187 29.855-1.111 2.618.234 6.893 3.678 6.291 6.389-.811 11.173-5.652 16.52-8.773 3.687-2.528 7.206-6.037 11.682-6.887 2.569 1.268 1.028 4.907-1.22 5.664-25.227 17.925-52.317 33.318-76.116 53.244-4.51 3.44-8.515 7.778-13.3 10.695-4.243-.984-5.6-5.875-9.177-7.984-2.866-2.626-5.731-5.266-7.99-8.39 9.746-12.204 17.553-25.89 26.23-38.747 2.293-.354 2.59 2.522 1.916 4.08-1.068 6.308-4.705 13.061-1.69 19.385 2.603 2.838 6.475.267 8.497-1.937 11.896-9.936 23.05-20.766 32.916-32.734 8.768-10.101 17.348-20.295 27.262-29.289zm-262.85.162c3.952 1.215 5.703 5.431 8.913 7.748 16.869 17.567 31.364 37.565 50.559 52.793 2.309 2.214 5.413 5.29 8.875 4.153 4.021-3.359 1.97-9.186 1.076-13.467-1.053-3.959-2.215-8.43-1.582-12.461 6.658 5.57 8.962 14.399 14.346 20.998 4.387 6.637 9.08 13.064 13.842 19.438-4.837 5.742-10.917 10.559-15.924 16.223-4.912-.106-7.085-5.372-10.953-7.59-19.897-16.545-41.355-31.073-63.23-44.85-6.625-4.496-13.734-8.808-19.341-14.434-.457-2.604 3.848-4.007 5.062-1.639 7.945 5.275 15.427 12.222 24.844 14.752 3.304.064 5.232-4.114 3.287-6.705-2.715-6.162-7.594-11.029-10.71-16.971-3.44-5.389-8.474-9.99-10.565-16.111-.049-.886.491-1.935 1.502-1.877z" transform="matrix(2.6834 0 0 2.7386 -537.16 -490.9)" filter="url(#a)"/>
</svg>
