<svg xmlns="http://www.w3.org/2000/svg" viewBox="0 0 744.09448819 1052.3622047" height="297mm" width="210mm">
    <defs>
        <filter id="a" color-interpolation-filters="sRGB">
            <feBlend in2="BackgroundImage" mode="darken"/>
        </filter>
    </defs>
    <path d="M421.566 385.131c-.213-.018-.422-.008-.597.116-2.753 1.37-.919 5.079 1.102 6.195 16.956 17.793 32.441 37.765 41.402 60.805 3.176 10.362 2.167 21.336 1.532 32.01-.924 8.098-2.863 16.73-8.243 23.14-5.915 4.912-14.215 3.019-21.027 1.574-16.136-3.415-30.638-11.839-44.663-20.284-3.58.78-3.676 6.503-.131 7.378 17.719 13.071 39.388 22.598 61.8 21.073 5.09-.495 9.816-3.553 11.986-8.243 9.373-15.13 9.74-33.99 6.872-51.05-3.185-16.92-11.985-32.326-23.323-45.113-7.866-9.913-16.418-19.334-26.083-27.53-.196 0-.415-.052-.627-.07zM351.623 385.157c-6.052 2.221-8.923 8.605-13.71 12.506-14.604 15.91-29.706 32.995-35.135 54.463-4.445 17.187-4.261 36.141 3.14 52.486 2.636 5.348 6.45 11.824 13.118 12.192 23.204 2.265 45.971-7.544 63.89-21.689 3.153-1.06 2.07-5.954-1.027-6.149-3.002-.069-4.745 3.044-7.398 3.99-15.7 9.726-33.492 17.777-52.264 17.37-7.43-1.49-11.063-9.385-12.324-16.146-3.215-13.026-3.268-26.695-.93-39.783 7.165-21.716 21.663-40.003 36.445-57.053 3.128-3.174 6.577-6.337 8.177-10.614-.35-.795-1.002-1.682-1.982-1.573zM330.222 389.182c-11.297 2.023-21.22 8.224-31.707 12.552-20.6 9.92-41.184 20.173-60.142 33.011-3.46 2.818-8.003 6.684-6.994 11.672 1.648 5.828 8.48 8.187 13.982 7.19 14.221-.69 27.074-7.582 40.537-11.468 5.441-1.815 11.144-3.368 15.859-6.782.842-3.15-3.284-5.201-5.644-3.373-18.317 5.082-35.638 14.025-54.585 16.304-2.65-.097-5.232-3.372-2.867-5.568 4.418-5.605 11.535-7.892 17.426-11.54 24.74-12.961 49.79-25.503 75.662-35.985 2.322-1.032 2.65-4.537.187-5.618a3.532 3.532 0 0 0-1.714-.395zM442.36 389.218c-3.638-.136-3.934 5.965-.35 6.29 9.017 3.789 18.11 7.389 26.878 11.743 20.709 9.732 41.321 19.792 61.053 31.388 2.495 1.697 6.58 4.611 4.779 8.02-3.363 3.283-8.26.737-12.172.173-15.674-3.72-30.38-10.812-46.013-14.762-1.89-.584-4.635-1.137-5.113 1.421-.587 2.339 1.582 4.406 3.828 4.385 17.218 5.756 34.067 13.463 52.218 15.853 5.324.446 12.188-1.084 14.033-6.801 1.514-5.198-3.265-9.304-6.913-12.137-11.762-9.244-25.738-14.969-38.64-22.362-16.877-8.806-33.943-17.609-52.203-23.186-.461-.023-.925.008-1.385-.026z" filter="url(#a)"/>
    <path d="M478.416 480.91c-4.114.242-5.628 6.386-2.266 8.648 11.376 16.325 15.967 38.258 8.36 56.94-9.722 19.079-28.273 32.107-47.9 39.258-13.858 5.715-28.481 9.295-43.07 12.344-3.17 1.68-1.15 6.68 2.185 6.437 5.397.6 10.676-1.275 15.975-1.997 13.917-3.005 26.875-9.236 40.228-13.826 3.859-.072 6.154 4.128 5.173 7.57-.698 10.917-6.62 20.638-11.368 30.246-6.41 11.086-14.213 21.757-24.112 29.952-3.396.183-3.827-4.255-5.567-6.225-7.661-13.431-12.495-28.13-18.741-42.25-2.77-1.988-6.37 2.292-4.071 4.718 6.316 17.702 14.12 35.008 23.899 51.034 3.264 2.671 7.432-.222 9.714-2.806 13.1-12.53 23.33-27.827 31.45-43.955 4.18-9.39 5.723-19.858 4.753-30.064.244-4.652 3.836-8.08 7.626-10.24 11.164-8.73 21.941-19.994 24.364-34.519 4.03-16.702.916-34.785-7.535-49.568-2.221-4.105-4.297-8.855-8.172-11.585a3.006 3.006 0 0 0-.925-.112zM294.065 481.052c-5.271 2.269-6.18 8.667-9.29 12.875-7.579 14.257-10.69 31.097-7.17 46.979 2.5 13.413 10.836 25.179 21.73 33.184 3.337 2.92 7.572 5.374 9.805 9.239 2.005 9.276-.89 19.401 3.61 28.177 7.141 19.468 20.255 36.136 34.706 50.731 2.367 2.302 6.897 3.79 9.214.658 3.569-5.22 5.656-11.197 8.804-16.653 5.879-11.813 11.54-23.842 14.994-36.622-1.047-3.14-6.28-2.297-6.28.996-5.851 15.71-11.651 31.667-21.139 45.604-3.126 1.083-4.75-2.901-6.796-4.511-14.7-14.98-25.815-33.796-30.458-54.322-.746-3.756 1.214-9.35 5.896-8.47 5.503 1.031 10.327 4.212 15.626 5.952 13.063 5.164 26.863 9.689 41.037 9.562 3.077-.642 3.893-5.91.445-6.569-7.367-1.581-14.846-2.706-21.977-5.218-21.712-6.189-44.18-15.057-59.278-32.729-7.45-8.331-12.792-19.037-12.698-30.28-.71-15.219 4.894-30.503 13.73-42.91 1.098-2.687-1.747-6.073-4.511-5.673z" filter="url(#a)"/>
    <path d="M377.743 541.81H388.4c.994.128 1.724.658 1.948 2.252.078.554-.131 1.13-.313 1.637-.18.503-.618.794-.952 1.063-.52.392-1.037.79-1.57 1.148a82.584 82.584 0 0 0-2.08 1.546c-.715.532-1.37 1.185-2.035 1.818-.543.481-1.017 1.08-1.515 1.638a29.42 29.42 0 0 0-1.586 1.863 16.997 16.997 0 0 1-1.67 1.941c-.294.332-.646.567-.94.897-.029.034.074-.047.097-.09.151-.285.28-.59.42-.886-.367-2.315.096-1.883-.966-2.776-.13-.108-.226-.037-.186-.098.025-.037.07-.036.106-.047.117-.038.237-.067.355-.101.922-.323 1.842-.651 2.78-.88a14.091 14.091 0 0 1 2.198-.527c.553-.019 1.092-.172 1.64-.261.653-.097 1.31-.125 1.966-.14a9.3 9.3 0 0 1 1.388-.268c.541-.06 1.085-.066 1.628-.07.364-.017.781.043 1.087-.051 2.398-.636 3.064 3.94.666 4.576-.575.144-1.15.157-1.733.138a13.94 13.94 0 0 0-1.33.05c-.553.067-1.095.228-1.65.287-.539.013-1.079.032-1.616.109-.562.087-1.117.249-1.685.268-.66.09-1.305.29-1.953.48-.905.212-1.786.562-2.678.853-.596.168-1.447.467-2.034.124-.297-.173-.676-.284-.838-.662-.3-.702-.302-1.569-.452-2.353.155-.364.285-.75.466-1.093.295-.555.872-.776 1.225-1.245.487-.464.922-1.018 1.347-1.578a33.213 33.213 0 0 1 1.748-2.056c.57-.63 1.108-1.313 1.728-1.857.755-.713 1.497-1.449 2.306-2.052.746-.575 1.5-1.13 2.258-1.674.5-.333.98-.711 1.467-1.075-.1.15-.293.437-.314.518-.118.459-.3.957-.213 1.428.187 1 .716 1.885 1.485 1.87h-10.659c-2.443 0-2.443-4.664 0-4.664z"/>
    <g>
        <path d="M253.25 201.084c-5.148.527-9.453 7.343-5.795 11.717 5.526 9.373 12.175 18.051 17.639 27.443-7.44-3.84-13.327-11.318-22.05-12.338-6.725.074-10.17 9.917-4.919 14.18 14.69 11.615 31.032 20.99 46.285 31.857 15.864 10.754 31.27 22.205 45.883 34.6 2.766 1.938 7.03 1.64 8.885-1.42 5.762-6.282 12.812-11.586 17.613-18.635.787-5.697-5.019-9.014-7.535-13.345-7.982-10.318-13.928-22.103-21.69-32.516-4.282-3.027-11.824.35-11.043 5.947-.015 6.192 2.9 12.228 3.944 17.983-21.738-19.261-39.657-42.33-60.557-62.409-1.969-1.444-4.176-2.85-6.66-3.064zm1.436 6.953c3.95 1.215 5.702 5.431 8.912 7.748 16.869 17.567 31.363 37.565 50.558 52.793 2.31 2.214 5.413 5.29 8.875 4.152 4.022-3.358 1.97-9.185 1.076-13.466-1.052-3.959-2.214-8.43-1.582-12.461 6.658 5.57 8.963 14.399 14.346 20.998 4.388 6.637 9.081 13.064 13.842 19.437-4.837 5.742-10.918 10.56-15.924 16.223-4.912-.105-7.084-5.371-10.953-7.59-19.897-16.545-41.355-31.073-63.229-44.85-6.625-4.496-13.735-8.807-19.341-14.433-.457-2.604 3.848-4.007 5.062-1.639 7.945 5.275 15.427 12.222 24.844 14.752 3.303.064 5.232-4.114 3.287-6.705-2.716-6.162-7.594-11.029-10.711-16.97-3.439-5.39-8.474-9.991-10.564-16.112-.05-.886.49-1.935 1.502-1.877zM519.258 201.215a6.265 6.265 0 0 0-.858.031c-11.748 5.353-18.082 17.374-27.236 25.85-12.555 13.574-25.077 27.218-38.752 39.668 1.31-7.085 5.819-14.463 3.192-21.82-2.675-5.344-11.823-3.924-13.26 1.699-7.672 13.886-17.53 26.347-26.23 39.57-.014 5.999 6.344 8.727 9.663 12.764 3.746 3.828 11.047 10.894 11.559 10.734 9.31-1.486 14.162-10.095 21.768-14.629 23.814-17.98 49.149-33.995 73.523-51.096 3.618-2.331 6.226-7.034 4.156-11.226-1.572-3.964-6.54-6.147-10.392-4.1-6.895 2.45-11.873 8.17-18.31 11.443 5.808-10.268 13.58-19.405 18.796-29.982.903-4.406-3.332-8.774-7.62-8.906zm-1.727 6.66c2.996-.124 2.948 4.16.98 5.527-7.094 9.685-14.258 19.42-20.187 29.856-1.11 2.618.234 6.892 3.678 6.29 6.389-.811 11.173-5.651 16.52-8.773 3.687-2.527 7.206-6.037 11.681-6.886 2.57 1.267 1.029 4.906-1.219 5.664-25.228 17.925-52.317 33.317-76.117 53.244-4.51 3.44-8.514 7.777-13.299 10.695-4.243-.984-5.6-5.875-9.177-7.984-2.867-2.626-5.732-5.266-7.99-8.39 9.746-12.204 17.553-25.89 26.23-38.747 2.293-.354 2.59 2.522 1.916 4.08-1.068 6.308-4.705 13.06-1.69 19.385 2.603 2.838 6.475.266 8.497-1.938 11.895-9.936 23.05-20.765 32.916-32.734 8.768-10.101 17.347-20.295 27.261-29.289z" filter="url(#a)"/>
    </g>
    <g>
        <path d="M386.469 290.627c-.46-.008-.93-.006-1.42.006-1.308.031-2.757.134-4.535.305-13.187 1.75-25.821 8.807-33.438 19.87-9.792 13.82-12.384 32.092-7.545 48.245 3.236 11.837 10.679 22.545 22.28 27.588 8.332 3.463 17.032 5.612 25.921 5.914 8.124.05 17.498-2.997 24.887-6.09 10.119-5.13 16.24-12.722 19.48-22.855 5.812-16.241 5.115-35.304-4.415-50.03-6.536-10.728-17.338-18.927-29.764-21.361-5.524-1.005-8.233-1.538-11.451-1.592zm-1.303 5.61c4.944-.088 9.923.673 15.047 2.01 10.872 2.474 17.004 8.494 22.707 18.216 8.35 13.13 10.413 30.703 3.287 44.683-2.459 2.748-6.479.983-8.293-1.568-8.924-8.065-17.915-16.092-27.256-23.672.658-.644 1.332-1.268 1.977-1.926.704-2.805-2.875-3.875-4.795-2.494-.505.306-.982.644-1.465.977-.352-.276-.694-.565-1.047-.84-1.654-1.456-5.15-.616-4.89 1.709.475.923 1.062 1.742 1.693 2.523-3.24 2.861-6.275 5.972-9.83 8.416-7.339 6.024-13.797 13.344-21.78 18.403-4.425.221-5.402-4.926-6.357-8.162-6.21-21.386 5.36-46.986 26.174-55.188 4.975-2.063 9.884-3 14.828-3.088zm1.229 43.7c2.5 1.982 5.18 3.806 7.306 6.145 8.936 7.722 18.777 14.573 26.701 23.352.427 4.489-4.414 6.82-7.408 9.113-7.599 4.723-20.588 8.052-25.045 8.023-3.868.197-24.252-3.966-33.383-12.275-2.036-1.866-2.951-5.473-.152-7.166 10.236-9.52 21.63-17.77 31.98-27.192z" filter="url(#a)"/>
    </g>
</svg>
