<?xml version="1.0" encoding="UTF-8" standalone="no"?>
<svg
   xmlns:dc="http://purl.org/dc/elements/1.1/"
   xmlns:cc="http://creativecommons.org/ns#"
   xmlns:rdf="http://www.w3.org/1999/02/22-rdf-syntax-ns#"
   xmlns:svg="http://www.w3.org/2000/svg"
   xmlns="http://www.w3.org/2000/svg"
   style="shape-rendering:crispEdges"
   width="100"
   height="140"
   viewBox="0 0 99.999997 139.99999"
   id="svg4184"
   version="1.1">
  <defs
     id="defs4186">
    <filter
       style="color-interpolation-filters:sRGB"
       id="filter6030">
      <feBlend
         mode="darken"
         in2="BackgroundImage"
         id="feBlend6032" />
    </filter>
  </defs>
  <metadata
     id="metadata4189">
    <rdf:RDF>
      <cc:Work
         rdf:about="">
        <dc:format>image/svg+xml</dc:format>
        <dc:type
           rdf:resource="http://purl.org/dc/dcmitype/StillImage" />
        <dc:title></dc:title>
      </cc:Work>
    </rdf:RDF>
  </metadata>
  <g
     transform="translate(-143.33848,-90.07394)"
     style="display:inline"
     id="layer4">
    <path
       transform="matrix(0.26833819,0,0,0.27385696,89.622344,42.347615)"
       id="path4204"
       d="m 421.56641,385.13086 c -0.21283,-0.0181 -0.42274,-0.007 -0.59766,0.11719 -2.75318,1.36979 -0.91773,5.07699 1.10352,6.19336 16.95529,17.7928 32.44023,37.76521 41.40039,60.80468 3.17655,10.36245 2.16671,21.33741 1.53125,32.01172 -0.92368,8.09794 -2.86249,16.72994 -8.24219,23.14063 -5.91466,4.91111 -14.21574,3.01753 -21.02734,1.57226 -16.13624,-3.41494 -30.63689,-11.83828 -44.66211,-20.2832 -3.58104,0.779 -3.67606,6.50184 -0.13086,7.37695 17.71924,13.07112 39.38858,22.59801 61.80078,21.07227 5.08875,-0.4946 9.81427,-3.55225 11.98437,-8.24219 9.37349,-15.12958 9.74034,-33.98787 6.87305,-51.04883 -3.18512,-16.91959 -11.9843,-32.32655 -23.32227,-45.11328 -7.86634,-9.913 -16.41876,-19.33554 -26.08398,-27.53125 -0.19574,7.3e-4 -0.41419,-0.0514 -0.62695,-0.0703 z m -69.94336,0.0254 c -6.05189,2.22103 -8.92304,8.60459 -13.70899,12.50586 -14.60451,15.91018 -29.70775,32.99618 -35.13672,54.46484 -4.44467,17.18645 -4.26097,36.1393 3.14063,52.48438 2.63521,5.34772 6.44869,11.82458 13.11719,12.19336 23.20395,2.26432 45.97247,-7.54493 63.89062,-21.68946 3.15338,-1.0594 2.07042,-5.95381 -1.02734,-6.14843 -3.00203,-0.0686 -4.74468,3.04264 -7.39844,3.98828 -15.70002,9.72626 -33.49214,17.77707 -52.26367,17.37109 -7.43103,-1.49138 -11.06194,-9.38544 -12.32227,-16.14648 -3.21544,-13.02586 -3.2698,-26.69523 -0.93164,-39.78321 7.16477,-21.71597 21.66305,-40.00332 36.44531,-57.05273 3.1277,-3.17412 6.57759,-6.33617 8.17774,-10.61328 -0.3508,-0.79432 -1.00204,-1.68351 -1.98242,-1.57422 z m -21.40039,4.02539 c -11.29672,2.02255 -21.22064,8.22463 -31.70704,12.55274 -20.59958,9.92068 -41.18419,20.17289 -60.14257,33.01171 -3.45961,2.81788 -8.00274,6.68241 -6.99414,11.66993 1.64781,5.82793 8.48042,8.1875 13.98242,7.1914 14.22062,-0.69045 27.07379,-7.58279 40.53711,-11.46875 5.44121,-1.81511 11.1425,-3.3674 15.85742,-6.78125 0.84241,-3.14958 -3.2822,-5.2014 -5.64258,-3.37304 -18.31689,5.08156 -35.63889,14.02386 -54.58594,16.30273 -2.6507,-0.0968 -5.23235,-3.3704 -2.86718,-5.56641 4.41748,-5.6054 11.53621,-7.89315 17.42773,-11.54101 24.73981,-12.96178 49.79008,-25.50236 75.66211,-35.98438 2.3215,-1.03237 2.64826,-4.53746 0.18555,-5.61914 -0.52511,-0.27424 -1.12129,-0.40944 -1.71289,-0.39453 z m 112.13672,0.0352 0,0.002 c -3.63748,-0.13567 -3.93276,5.96386 -0.34766,6.28906 9.01663,3.78811 18.1083,7.38806 26.87695,11.74219 20.70842,9.73188 41.32099,19.79239 61.05274,31.38867 2.49509,1.69655 6.58049,4.61186 4.77929,8.02149 -3.36295,3.28219 -8.2619,0.73643 -12.17382,0.17187 -15.67373,-3.71888 -30.37765,-10.81253 -46.01172,-14.76172 -1.88879,-0.58421 -4.63549,-1.13636 -5.11328,1.42188 -0.58682,2.33842 1.58226,4.40381 3.82812,4.38281 17.2182,5.75582 34.06807,13.46332 52.21875,15.85352 5.32341,0.44531 12.18791,-1.08354 14.0332,-6.80079 1.51349,-5.19744 -3.26672,-9.30374 -6.91406,-12.13671 -11.76212,-9.24365 -25.73871,-14.96841 -38.64062,-22.36133 -16.87718,-8.8065 -33.94142,-17.61022 -52.20118,-23.1875 -0.46149,-0.0233 -0.92622,0.009 -1.38671,-0.0254 z m 36.05664,91.69336 c -4.11404,0.24157 -5.62777,6.38665 -2.26563,8.64843 11.37556,16.32556 15.96676,38.25643 8.35938,56.93946 -9.72101,19.07796 -28.27305,32.10667 -47.90039,39.25781 -13.85825,5.71538 -28.48146,9.29504 -43.07032,12.34375 -3.17055,1.67989 -1.1497,6.67925 2.18555,6.4375 5.39748,0.60035 10.67637,-1.27638 15.97461,-1.99805 13.91739,-3.00542 26.87556,-9.2344 40.22851,-13.82422 3.85947,-0.0722 6.1552,4.12739 5.17383,7.57032 -0.69783,10.91676 -6.62099,20.63563 -11.36914,30.24414 -6.41013,11.08602 -14.21294,21.75818 -24.11133,29.95312 -3.39643,0.18305 -3.82752,-4.25465 -5.56836,-6.22461 -7.66056,-13.43176 -12.49391,-28.13078 -18.74023,-42.25195 -2.76905,-1.98767 -6.36943,2.29294 -4.07031,4.71875 6.31594,17.70268 14.11979,35.00904 23.89843,51.03516 3.2643,2.67084 7.43297,-0.22272 9.71485,-2.80665 13.09952,-12.52898 23.32929,-27.82706 31.44922,-43.95507 4.18149,-9.39027 5.72392,-19.85853 4.7539,-30.06446 0.24441,-4.65184 3.83507,-8.08046 7.625,-10.24023 11.1646,-8.7297 21.94259,-19.99317 24.36524,-34.51758 4.03085,-16.70181 0.91611,-34.78511 -7.53516,-49.56836 -2.22131,-4.10476 -4.29681,-8.85562 -8.17187,-11.58594 -0.30026,-0.0831 -0.61439,-0.12452 -0.92578,-0.11132 z m -183.83204,0.10937 c -0.17241,-0.003 -0.34676,0.008 -0.51953,0.0332 -5.27126,2.26898 -6.17967,8.66677 -9.28906,12.875 -7.57896,14.2568 -10.68963,31.09644 -7.16992,46.97852 2.50006,13.41346 10.83523,25.17851 21.72851,33.18359 3.3381,2.91974 7.57432,5.37404 9.80664,9.23828 2.00514,9.27671 -0.89109,19.40211 3.60938,28.17774 7.14092,19.46784 20.25625,36.13524 34.70703,50.73047 2.36644,2.30152 6.89586,3.79061 9.21289,0.6582 3.56907,-5.21891 5.65625,-11.196 8.80469,-16.65234 5.87863,-11.81325 11.54034,-23.84308 14.99414,-36.62305 -1.04648,-3.13974 -6.28042,-2.29664 -6.28125,0.99609 -5.85022,15.70929 -11.65097,31.66695 -21.13867,45.60352 -3.12648,1.08366 -4.7509,-2.89971 -6.79688,-4.50977 -14.70033,-14.97982 -25.8133,-33.79645 -30.45703,-54.32226 -0.74511,-3.75604 1.21488,-9.35008 5.89649,-8.4707 5.50299,1.03172 10.32657,4.2138 15.625,5.95312 13.06336,5.16477 26.86322,9.68919 41.03711,9.5625 3.07649,-0.64247 3.8929,-5.91051 0.44531,-6.56836 -7.36658,-1.58166 -14.8447,-2.70644 -21.97656,-5.21875 -21.71154,-6.18832 -44.17965,-15.05871 -59.27735,-32.73047 -7.45021,-8.33128 -12.79326,-19.0351 -12.69922,-30.27929 -0.71059,-15.21794 4.89492,-30.50253 13.73047,-42.90821 1.02991,-2.52005 -1.40599,-5.6551 -3.99219,-5.70703 z m 83.15821,60.79102 c -2.44361,0 -2.44361,4.66406 0,4.66406 l 2.86914,0 1.8457,0 c -0.35069,0.32337 -0.69683,0.6554 -1.04492,0.98437 -0.61987,0.54373 -1.15899,1.22767 -1.72852,1.85743 -0.606,0.64875 -1.1835,1.34184 -1.74804,2.05468 -0.42493,0.56097 -0.85892,1.11456 -1.34571,1.57813 -0.3534,0.46926 -0.93011,0.69052 -1.22461,1.24609 -0.18122,0.34197 -0.31097,0.72948 -0.46679,1.09375 0.15084,0.78421 0.1509,1.64996 0.45117,2.35156 0.1619,0.37827 0.54089,0.48843 0.83789,0.66211 0.58698,0.34295 1.43914,0.0448 2.03516,-0.12304 0.89209,-0.29162 1.77271,-0.64244 2.67773,-0.85547 0.6476,-0.19003 1.29306,-0.38852 1.95313,-0.47852 0.56719,-0.0191 1.12332,-0.18027 1.68554,-0.26758 0.5368,-0.0763 1.07594,-0.0968 1.61524,-0.10937 0.55411,-0.0596 1.09691,-0.22041 1.65039,-0.28711 0.44207,-0.0443 0.88496,-0.0488 1.32812,-0.0508 0.58324,0.0189 1.15939,0.008 1.73438,-0.13672 2.39795,-0.63574 1.73179,-5.21193 -0.66602,-4.57617 -0.30557,0.0938 -0.72452,0.034 -1.08789,0.0508 -0.54305,0.004 -1.08531,0.0104 -1.62695,0.0703 -0.46529,0.0597 -0.93133,0.13638 -1.38867,0.26758 -0.65617,0.0147 -1.31196,0.0437 -1.96485,0.14063 -0.54563,0.0891 -1.08251,0.24166 -1.63281,0.26171 0.28914,-0.33024 0.58091,-0.65418 0.89844,-0.93554 0.66537,-0.63279 1.32039,-1.28594 2.03515,-1.81836 0.68718,-0.53028 1.3823,-1.04053 2.08008,-1.54492 0.53353,-0.35861 1.05017,-0.75676 1.57031,-1.14844 0.33376,-0.26973 0.7709,-0.55969 0.95118,-1.0625 0.182,-0.50726 0.39235,-1.08301 0.31445,-1.63672 -0.22376,-1.59371 -0.95554,-2.1239 -1.94922,-2.25195 l -1.85547,0 -2.47265,0 -3.46094,0 -2.86914,0 z"
       style="shape-rendering:crispEdges;display:inline;opacity:1;fill:#000000;stroke:none;filter:url(#filter6030)" />
  </g>
  <g
     transform="translate(-143.33848,-90.07394)"
     style="display:inline"
     id="layer2">
    <path
       transform="matrix(0.26833819,0,0,0.27385696,89.622344,42.347615)"
       id="path4210"
       d="m 386.46875,290.62695 c -0.45979,-0.008 -0.92959,-0.006 -1.41992,0.006 -1.30756,0.0315 -2.7573,0.1338 -4.53516,0.30469 -13.18626,1.75094 -25.82064,8.80726 -33.4375,19.87109 -9.79255,13.81923 -12.38385,32.09156 -7.54492,48.24414 3.23546,11.83702 10.67877,22.54555 22.2793,27.58789 8.33222,3.46335 17.03263,5.61194 25.92187,5.91407 8.12345,0.0497 17.49761,-2.9971 24.88672,-6.08985 10.11891,-5.12968 16.23959,-12.72191 19.48047,-22.85546 5.81141,-16.241 5.11484,-35.3032 -4.41602,-50.0293 -6.53532,-10.72791 -17.33805,-18.92752 -29.76367,-21.36133 -5.52428,-1.00509 -8.23263,-1.53756 -11.45117,-1.5918 z m -1.30273,5.60938 c 4.94399,-0.0878 9.92326,0.67396 15.04687,2.00976 10.87168,2.47469 17.00382,8.49455 22.70703,18.2168 8.34945,13.1307 10.41334,30.70264 3.28711,44.68359 -2.45861,2.74707 -6.47881,0.98264 -8.29297,-1.56836 -8.92376,-8.06484 -17.91522,-16.0917 -27.25586,-23.67187 0.65742,-0.64382 1.33166,-1.26801 1.97657,-1.92578 0.70404,-2.80501 -2.87494,-3.87572 -4.79493,-2.49414 -0.50504,0.30531 -0.98185,0.6437 -1.46484,0.97656 -0.35186,-0.27613 -0.69383,-0.56523 -1.04688,-0.83984 -1.65454,-1.45598 -5.14992,-0.61603 -4.89062,1.70898 0.47527,0.92347 1.0628,1.74229 1.69336,2.52344 -3.23988,2.86083 -6.27468,5.97105 -9.83008,8.41601 -7.33837,6.02349 -13.79712,13.34381 -21.7793,18.40235 -4.42531,0.22137 -5.40207,-4.92543 -6.35742,-8.16211 -6.21029,-21.38593 5.36021,-46.98581 26.17383,-55.1875 4.97553,-2.06366 9.88413,-3.00013 14.82813,-3.08789 z m 1.22851,43.70117 c 2.49991,1.98114 5.1796,3.80562 7.30664,6.14453 8.93632,7.7219 18.77639,14.57271 26.70117,23.35156 0.42643,4.48895 -4.41436,6.82039 -7.4082,9.11329 -7.59912,4.7232 -20.58834,8.05201 -25.04492,8.02343 -3.8681,0.19626 -24.25267,-3.96643 -33.38281,-12.27539 -2.03595,-1.86634 -2.95185,-5.47286 -0.15235,-7.16601 10.23638,-9.51937 21.63029,-17.76943 31.98047,-27.19141 z"
       style="shape-rendering:crispEdges;display:inline;opacity:1;fill:#000000;stroke:none;filter:url(#filter6030)" />
  </g>
  <g
     transform="translate(-143.33848,-90.07394)"
     style="display:inline"
     id="layer3">
    <path
       transform="matrix(0.26833819,0,0,0.27385696,89.622344,42.347615)"
       id="path4218"
       d="m 253.25,201.08398 c -5.14833,0.52683 -9.45314,7.34292 -5.79492,11.7168 5.52583,9.37332 12.1747,18.05133 17.63867,27.44336 -7.43992,-3.83962 -13.3265,-11.31828 -22.04883,-12.33789 -6.72616,0.0733 -10.17058,9.91688 -4.91992,14.17969 14.68922,11.61481 31.03194,20.99045 46.28516,31.85742 15.86337,10.7533 31.26905,22.20459 45.88281,34.59961 2.76585,1.93844 7.02929,1.64036 8.88476,-1.41992 5.76232,-6.2816 12.81261,-11.58561 17.61329,-18.63477 0.78685,-5.69725 -5.01883,-9.01438 -7.53516,-13.3457 -7.98221,-10.31768 -13.92759,-22.10237 -21.68945,-32.51563 -4.28282,-3.02727 -11.8243,0.34976 -11.04297,5.94727 -0.0155,6.19204 2.89939,12.22779 3.94336,17.98242 -21.73738,-19.26087 -39.65655,-42.33031 -60.55664,-62.4082 -1.96901,-1.44413 -4.17606,-2.85102 -6.66016,-3.06446 z m 266.00781,0.13086 c -0.28579,-0.009 -0.57268,10e-4 -0.85742,0.0312 -11.74803,5.35336 -18.08251,17.37386 -27.23633,25.84961 -12.55466,13.57442 -25.07706,27.21828 -38.75195,39.66797 1.30898,-7.08422 5.8187,-14.46245 3.19141,-21.82031 -2.6744,-5.34361 -11.82253,-3.92349 -13.25977,1.69922 -7.67172,13.88672 -17.52938,26.34734 -26.23047,39.57031 -0.0129,5.99897 6.34517,8.72749 9.66406,12.76367 3.74529,3.82835 11.04644,10.89448 11.5586,10.73438 9.30918,-1.48571 14.1622,-10.09538 21.76758,-14.62891 23.81449,-17.98001 49.14943,-33.99517 73.52343,-51.0957 3.61847,-2.33127 6.2256,-7.03463 4.15625,-11.22656 -1.57198,-3.96322 -6.54028,-6.1471 -10.39258,-4.09961 -6.89484,2.44912 -11.87297,8.17047 -18.31054,11.44336 5.80931,-10.26797 13.58029,-19.40547 18.79687,-29.98243 0.90314,-4.40619 -3.3323,-8.77448 -7.61914,-8.90625 z m -1.72656,6.66016 c 2.99617,-0.12366 2.94792,4.15914 0.98047,5.52734 -7.09504,9.68421 -14.25854,19.41997 -20.1875,29.85547 -1.11108,2.61813 0.23411,6.89267 3.67773,6.29102 6.38908,-0.8118 11.17316,-5.6523 16.51953,-8.77344 3.6874,-2.52785 7.20622,-6.03708 11.68164,-6.88672 2.56904,1.26754 1.02843,4.90676 -1.21874,5.66406 -25.22832,17.92547 -52.31785,33.31768 -76.11719,53.24415 -4.51028,3.43966 -8.51459,7.77731 -13.29883,10.69531 -4.24357,-0.9846 -5.60067,-5.87535 -9.17774,-7.98438 -2.86653,-2.62566 -5.73156,-5.26592 -7.99023,-8.39062 9.74638,-12.20271 17.55348,-25.88953 26.23047,-38.7461 2.2929,-0.35426 2.59079,2.52155 1.91602,4.08008 -1.06748,6.30756 -4.70518,13.06053 -1.68946,19.38477 2.60244,2.83795 6.47475,0.26636 8.4961,-1.9375 11.89578,-9.93609 23.05027,-20.76561 32.91601,-32.73438 8.76846,-10.10122 17.34756,-20.29503 27.26172,-29.28906 z m -262.8457,0.16211 c 3.95126,1.21464 5.70224,5.43128 8.91211,7.74805 16.86918,17.56699 31.36361,37.56501 50.55859,52.79296 2.30901,2.21425 5.41314,5.29026 8.875,4.15235 4.02186,-3.35845 1.96997,-9.18519 1.07617,-13.4668 -1.05252,-3.95837 -2.2143,-8.42974 -1.58203,-12.46094 6.65804,5.56989 8.96221,14.39912 14.3457,20.99805 4.38745,6.63771 9.08094,13.06408 13.8418,19.4375 -4.83714,5.7421 -10.91749,10.55883 -15.92383,16.22266 -4.91188,-0.10538 -7.08422,-5.37126 -10.95312,-7.58985 -19.8966,-16.54481 -41.35457,-31.07321 -63.22852,-44.84961 -6.62519,-4.49609 -13.7354,-8.80798 -19.3418,-14.43359 -0.4566,-2.60382 3.84816,-4.00707 5.0625,-1.63867 7.94466,5.27457 15.4273,12.22226 24.84376,14.75195 3.3036,0.0639 5.23175,-4.11396 3.2871,-6.70508 -2.71582,-6.16186 -7.5944,-11.02893 -10.71093,-16.9707 -3.4388,-5.38868 -8.47373,-9.99053 -10.56446,-16.11133 -0.049,-0.88557 0.49097,-1.93469 1.50196,-1.87695 z"
       style="shape-rendering:crispEdges;display:inline;opacity:1;fill:#000000;stroke:none;filter:url(#filter6030)" />
  </g>
</svg>
