<?xml version="1.0" encoding="UTF-8" standalone="no"?>
<svg
   xmlns:dc="http://purl.org/dc/elements/1.1/"
   xmlns:cc="http://creativecommons.org/ns#"
   xmlns:rdf="http://www.w3.org/1999/02/22-rdf-syntax-ns#"
   xmlns:svg="http://www.w3.org/2000/svg"
   xmlns="http://www.w3.org/2000/svg"
   xmlns:sodipodi="http://sodipodi.sourceforge.net/DTD/sodipodi-0.dtd"
   xmlns:inkscape="http://www.inkscape.org/namespaces/inkscape"
   version="1.1"
   id="svg4184"
   viewBox="0 0 744.09448819 1052.3622047"
   height="297mm"
   width="210mm"
   inkscape:version="0.91 r13725"
   sodipodi:docname="hierofania_new.svg">
  <sodipodi:namedview
     pagecolor="#ffffff"
     bordercolor="#666666"
     borderopacity="1"
     objecttolerance="10"
     gridtolerance="10"
     guidetolerance="10"
     inkscape:pageopacity="0"
     inkscape:pageshadow="2"
     inkscape:window-width="1366"
     inkscape:window-height="744"
     id="namedview10"
     showgrid="false"
     inkscape:zoom="1.3305343"
     inkscape:cx="423.62937"
     inkscape:cy="525.35978"
     inkscape:window-x="0"
     inkscape:window-y="24"
     inkscape:window-maximized="1"
     inkscape:current-layer="layer4" />
  <defs
     id="defs4186">
    <filter
       id="filter6030"
       style="color-interpolation-filters:sRGB">
      <feBlend
         id="feBlend6032"
         in2="BackgroundImage"
         mode="darken" />
    </filter>
  </defs>
  <metadata
     id="metadata4189">
    <rdf:RDF>
      <cc:Work
         rdf:about="">
        <dc:format>image/svg+xml</dc:format>
        <dc:type
           rdf:resource="http://purl.org/dc/dcmitype/StillImage" />
        <dc:title></dc:title>
      </cc:Work>
    </rdf:RDF>
  </metadata>
  <g
     inkscape:groupmode="layer"
     id="layer4"
     inkscape:label="Body"
     style="display:inline">
    <path
       inkscape:connector-curvature="0"
       id="path4204"
       d="m 421.56562,385.13114 c -0.21283,-0.0181 -0.4218,-0.008 -0.59672,0.11625 -2.75318,1.36979 -0.91884,5.07837 1.10241,6.19474 16.95529,17.7928 32.44106,37.76526 41.40122,60.80473 3.17655,10.36245 2.16769,21.33615 1.53223,32.01046 -0.92368,8.09794 -2.86311,16.72988 -8.24281,23.14057 -5.91466,4.91111 -14.21516,3.01798 -21.02676,1.57271 -16.13624,-3.41494 -30.63771,-11.83847 -44.66293,-20.28339 -3.58104,0.779 -3.67673,6.50297 -0.13153,7.37808 17.71924,13.07112 39.38874,22.59802 61.80094,21.07228 5.08875,-0.4946 9.81484,-3.55289 11.98494,-8.24283 9.37349,-15.12958 9.73968,-33.98888 6.87239,-51.04984 -3.18512,-16.91959 -11.98465,-32.3263 -23.32262,-45.11303 -7.86634,-9.913 -16.4185,-19.33429 -26.08372,-27.53 -0.19574,7.3e-4 -0.41431,-0.0518 -0.62707,-0.0707 z"
       style="display:inline;opacity:1;fill:#000000;stroke:none;filter:url(#filter6030)" />
    <path
       inkscape:connector-curvature="0"
       id="path4202"
       d="m 351.62303,385.15703 c -6.05189,2.22103 -8.92342,8.60456 -13.70937,12.50583 -14.60451,15.91018 -29.70667,32.99464 -35.13564,54.4633 -4.44467,17.18645 -4.26123,36.14096 3.14037,52.48604 2.63521,5.34772 6.44919,11.8235 13.11769,12.19228 23.20395,2.26432 45.9713,-7.5447 63.88945,-21.68923 3.15338,-1.0594 2.07119,-5.95462 -1.02657,-6.14924 -3.00203,-0.0686 -4.74455,3.0443 -7.39831,3.98994 -15.70002,9.72626 -33.49199,17.77657 -52.26352,17.37059 -7.43103,-1.49138 -11.06343,-9.38579 -12.32376,-16.14683 -3.21544,-13.02586 -3.26865,-26.69499 -0.93049,-39.78297 7.16477,-21.71597 21.66313,-40.00307 36.44539,-57.05248 3.1277,-3.17412 6.57694,-6.33742 8.17709,-10.61453 -0.3508,-0.79432 -1.00195,-1.68199 -1.98233,-1.5727 z"
       style="display:inline;opacity:1;fill:#000000;stroke:none;filter:url(#filter6030)" />
    <path
       inkscape:connector-curvature="0"
       id="path4200"
       d="m 330.22206,389.18236 c -11.29672,2.02255 -21.22066,8.22321 -31.70705,12.55132 -20.59959,9.92069 -41.18385,20.17294 -60.14223,33.01176 -3.45961,2.81788 -8.00236,6.68393 -6.99376,11.67145 1.64781,5.82793 8.48045,8.18706 13.98245,7.19096 14.22062,-0.69045 27.07316,-7.58319 40.53648,-11.46915 5.44121,-1.81511 11.14365,-3.36751 15.85857,-6.78136 0.84241,-3.14958 -3.28317,-5.20133 -5.64355,-3.37298 -18.31689,5.08156 -35.63761,14.02471 -54.58466,16.30358 -2.6507,-0.0968 -5.23246,-3.37168 -2.86729,-5.56769 4.41748,-5.6054 11.53471,-7.89209 17.42623,-11.53995 24.73981,-12.96178 49.78997,-25.50323 75.662,-35.98525 2.3215,-1.03237 2.64991,-4.53658 0.1872,-5.61826 -0.52511,-0.27424 -1.12271,-0.40934 -1.71431,-0.39443 z"
       style="display:inline;opacity:1;fill:#000000;stroke:none;filter:url(#filter6030)" />
    <path
       inkscape:connector-curvature="0"
       id="path4198"
       d="m 442.35978,389.21783 c -3.63748,-0.13567 -3.93402,5.96565 -0.34892,6.29085 9.01663,3.78811 18.10899,7.38808 26.87764,11.74221 20.70842,9.73188 41.32074,19.7922 61.05249,31.38848 2.49509,1.69655 6.58003,4.6107 4.77883,8.02033 -3.36295,3.28219 -8.26016,0.73648 -12.17209,0.17192 -15.67373,-3.71888 -30.37905,-10.81203 -46.01312,-14.76122 -1.88879,-0.58421 -4.63477,-1.13723 -5.11257,1.42101 -0.58681,2.33842 1.58225,4.40537 3.82811,4.38437 17.2182,5.75582 34.06731,13.4633 52.21799,15.8535 5.32341,0.44531 12.18775,-1.08433 14.03304,-6.80158 1.51349,-5.19744 -3.26552,-9.30369 -6.91286,-12.13666 -11.76212,-9.24365 -25.73818,-14.96892 -38.64009,-22.36184 -16.87718,-8.8065 -33.94308,-17.60882 -52.20284,-23.1861 -0.46149,-0.0233 -0.92511,0.008 -1.38561,-0.0259 z"
       style="display:inline;opacity:1;fill:#000000;stroke:none;filter:url(#filter6030)" />
    <path
       inkscape:connector-curvature="0"
       id="path4196"
       d="m 478.41579,480.91037 c -4.11404,0.24157 -5.62766,6.38561 -2.26552,8.64739 11.37556,16.32556 15.96652,38.25814 8.35914,56.94117 -9.72101,19.07796 -28.27202,32.10592 -47.89937,39.25706 -13.85825,5.71538 -28.48115,9.2953 -43.07001,12.34401 -3.17055,1.67989 -1.15065,6.67924 2.1846,6.43749 5.39748,0.60035 10.67664,-1.27583 15.97488,-1.9975 13.91739,-3.00542 26.87505,-9.23586 40.228,-13.82568 3.85947,-0.0722 6.15463,4.12732 5.17326,7.57025 -0.69783,10.91676 -6.61985,20.63707 -11.368,30.24558 -6.41013,11.08602 -14.21312,21.75735 -24.11151,29.95229 -3.39643,0.18305 -3.82685,-4.25515 -5.56769,-6.22511 -7.66056,-13.43176 -12.49472,-28.1296 -18.74104,-42.25077 -2.76905,-1.98767 -6.36997,2.29233 -4.07085,4.71814 6.31594,17.70268 14.12048,35.00854 23.89913,51.03466 3.2643,2.67084 7.4325,-0.22267 9.71438,-2.80659 13.09952,-12.52898 23.32919,-27.82695 31.44912,-43.95496 4.18149,-9.39027 5.72356,-19.8576 4.75354,-30.06353 0.24441,-4.65184 3.83593,-8.08055 7.62586,-10.24032 11.1646,-8.7297 21.94172,-19.99429 24.36437,-34.5187 4.03085,-16.70181 0.91641,-34.78492 -7.53486,-49.56817 -2.22131,-4.10476 -4.29696,-8.85514 -8.17202,-11.58546 -0.30026,-0.0831 -0.61402,-0.12453 -0.92541,-0.11133 z"
       style="display:inline;opacity:1;fill:#000000;stroke:none;filter:url(#filter6030)" />
    <path
       inkscape:connector-curvature="0"
       id="path4800-4"
       d="m 294.06489,481.05199 c -5.27126,2.26898 -6.18021,8.66676 -9.2896,12.87499 -7.57896,14.2568 -10.69045,31.09693 -7.17074,46.97901 2.50006,13.41346 10.83641,25.17858 21.72969,33.18366 3.3381,2.91974 7.5731,5.3748 9.80542,9.23904 2.00514,9.27671 -0.88982,19.40165 3.61065,28.17728 7.14092,19.46784 20.25503,36.13604 34.70581,50.73127 2.36644,2.30152 6.89671,3.78982 9.21374,0.65741 3.56907,-5.21891 5.6557,-11.19618 8.80414,-16.65252 5.87863,-11.81325 11.54005,-23.84241 14.99385,-36.62238 -1.04648,-3.13974 -6.27989,-2.29653 -6.28072,0.9962 -5.85022,15.70929 -11.65035,31.66698 -21.13805,45.60355 -3.12648,1.08366 -4.75055,-2.90074 -6.79653,-4.5108 -14.70033,-14.97982 -25.81423,-33.79589 -30.45796,-54.3217 -0.74511,-3.75604 1.21478,-9.34975 5.89639,-8.47037 5.50299,1.03172 10.32752,4.21268 15.62595,5.952 13.06336,5.16477 26.86322,9.68937 41.03711,9.56268 3.07649,-0.64247 3.89261,-5.91112 0.44502,-6.56897 -7.36658,-1.58166 -14.84564,-2.70644 -21.9775,-5.21875 -21.71154,-6.18832 -44.17979,-15.0568 -59.27749,-32.72856 -7.45021,-8.33128 -12.79201,-19.03679 -12.69797,-30.28098 -0.71059,-15.21794 4.89405,-30.5025 13.7296,-42.90818 1.09857,-2.68806 -1.7466,-6.07431 -4.51081,-5.67388 z"
       style="display:inline;opacity:1;fill:#000000;stroke:none;filter:url(#filter6030)" />
    <path
       inkscape:connector-curvature="0"
       style="opacity:1;fill:#000000;stroke:none;stroke-opacity:1"
       id="path10784-8"
       d="m 377.74281,541.81044 c 0.95645,0 1.91273,0 2.86917,0 1.15325,0 2.30649,0 3.45958,0 0.82493,0 1.6497,0 2.47431,0 0.61846,0 1.23677,0 1.85507,0 0.99368,0.12805 1.72402,0.65773 1.94778,2.25144 0.0779,0.55371 -0.13089,1.12984 -0.31289,1.6371 -0.18028,0.50281 -0.61815,0.79363 -0.95191,1.06336 -0.52014,0.39168 -1.03717,0.78887 -1.5707,1.14748 -0.69778,0.50439 -1.39243,1.0155 -2.07961,1.54578 -0.71476,0.53242 -1.3689,1.18582 -2.03427,1.81861 -0.54288,0.48105 -1.01721,1.08016 -1.51553,1.63793 -0.55006,0.58742 -1.07409,1.21626 -1.58581,1.86333 -0.51858,0.70534 -1.0797,1.34877 -1.67042,1.94058 -0.29373,0.33176 -0.64542,0.56654 -0.93899,0.89685 -0.0296,0.0339 0.0732,-0.0467 0.0966,-0.0896 0.15115,-0.2855 0.28048,-0.59116 0.42072,-0.88673 -0.36805,-2.31503 0.0951,-1.88293 -0.96672,-2.77555 -0.12934,-0.10829 -0.22641,-0.0374 -0.18575,-0.098 0.0249,-0.0374 0.0701,-0.036 0.10596,-0.0475 0.11687,-0.0376 0.2367,-0.0668 0.35497,-0.10051 0.92185,-0.32292 1.84136,-0.65144 2.77894,-0.88071 0.72614,-0.22897 1.45679,-0.41803 2.1982,-0.52619 0.55301,-0.0189 1.09231,-0.17179 1.6405,-0.26128 0.65289,-0.0969 1.30954,-0.12532 1.96571,-0.14004 0.45734,-0.1312 0.92278,-0.20837 1.38807,-0.26804 0.54164,-0.0599 1.0853,-0.0658 1.62835,-0.07 0.36337,-0.0168 0.78113,0.0431 1.0867,-0.0507 2.39781,-0.63576 3.0641,3.94006 0.66615,4.5758 l 0,0 c -0.57499,0.14445 -1.15014,0.15685 -1.73338,0.13793 -0.44316,0.002 -0.88679,0.006 -1.32886,0.0503 -0.55348,0.0667 -1.09621,0.22778 -1.65032,0.28735 -0.5393,0.0126 -1.07923,0.032 -1.61603,0.10829 -0.56222,0.0873 -1.11788,0.24891 -1.68507,0.26798 -0.66007,0.09 -1.30564,0.28937 -1.95324,0.4794 -0.90502,0.21303 -1.78604,0.56274 -2.67813,0.85436 -0.59602,0.16779 -1.44713,0.46679 -2.03411,0.12384 -0.297,-0.17368 -0.6758,-0.28428 -0.8377,-0.66254 -0.30027,-0.70161 -0.30167,-1.56843 -0.45251,-2.35264 0.15582,-0.36427 0.28547,-0.75078 0.46669,-1.09275 0.2945,-0.55557 0.87167,-0.7761 1.22507,-1.24536 0.48679,-0.46357 0.9217,-1.01752 1.34663,-1.57849 0.56454,-0.71284 1.14186,-1.40697 1.74786,-2.05572 0.56953,-0.62976 1.10852,-1.31309 1.72839,-1.85682 0.75449,-0.71304 1.49715,-1.44899 2.30571,-2.05153 0.74561,-0.57529 1.49933,-1.13072 2.25787,-1.67408 0.49941,-0.33345 0.97966,-0.71176 1.46708,-1.07506 -0.0997,0.14992 -0.2928,0.43706 -0.31368,0.51788 -0.11843,0.4586 -0.30074,0.95682 -0.21301,1.42752 0.18668,1.00017 0.7157,1.88497 1.48468,1.87006 -0.6183,0 -1.23661,0 -1.85507,0 -0.82461,0 -1.64938,0 -2.47431,0 -1.15309,0 -2.30633,0 -3.45958,0 -0.95644,0 -1.91272,0 -2.86917,0 -2.44361,0 -2.44361,-4.66331 0,-4.66331 z" />
  </g>
  <g
     inkscape:groupmode="layer"
     id="layer3"
     inkscape:label="Horns"
     style="display:inline">
    <path
       style="display:inline;opacity:1;fill:#000000;stroke:none;filter:url(#filter6030)"
       d="m 253.25,201.08398 c -5.14833,0.52683 -9.45314,7.34292 -5.79492,11.7168 5.52583,9.37332 12.1747,18.05133 17.63867,27.44336 -7.43992,-3.83962 -13.3265,-11.31828 -22.04883,-12.33789 -6.72616,0.0733 -10.17058,9.91688 -4.91992,14.17969 14.68922,11.61481 31.03194,20.99045 46.28516,31.85742 15.86337,10.7533 31.26905,22.20459 45.88281,34.59961 2.76585,1.93844 7.02929,1.64036 8.88476,-1.41992 5.76232,-6.2816 12.81261,-11.58561 17.61329,-18.63477 0.78685,-5.69725 -5.01883,-9.01438 -7.53516,-13.3457 -7.98221,-10.31768 -13.92759,-22.10237 -21.68945,-32.51563 -4.28282,-3.02727 -11.8243,0.34976 -11.04297,5.94727 -0.0155,6.19204 2.89939,12.22779 3.94336,17.98242 -21.73738,-19.26087 -39.65655,-42.33031 -60.55664,-62.4082 -1.96901,-1.44413 -4.17606,-2.85102 -6.66016,-3.06446 z m 1.43555,6.95313 c 3.95126,1.21464 5.70224,5.43128 8.91211,7.74805 16.86918,17.56699 31.36361,37.565 50.55859,52.79296 2.30901,2.21425 5.41314,5.29026 8.875,4.15235 4.02186,-3.35845 1.96997,-9.18519 1.07617,-13.4668 -1.05252,-3.95837 -2.2143,-8.42974 -1.58203,-12.46094 6.65804,5.56989 8.96221,14.39912 14.3457,20.99805 4.38745,6.63771 9.08094,13.06408 13.8418,19.4375 -4.83714,5.7421 -10.91749,10.55883 -15.92383,16.22266 -4.91188,-0.10538 -7.08422,-5.37126 -10.95312,-7.58985 -19.8966,-16.54481 -41.35457,-31.07321 -63.22852,-44.84961 -6.62519,-4.49609 -13.73541,-8.80798 -19.3418,-14.43359 -0.4566,-2.60382 3.84815,-4.00707 5.0625,-1.63867 7.94466,5.27457 15.42731,12.22226 24.84376,14.75195 3.3036,0.0639 5.23175,-4.11396 3.2871,-6.70508 -2.71582,-6.16186 -7.5944,-11.02893 -10.71093,-16.9707 -3.4388,-5.38868 -8.47373,-9.99053 -10.56446,-16.11133 -0.049,-0.88557 0.49097,-1.93469 1.50196,-1.87695 z"
       id="path4218"
       inkscape:connector-curvature="0" />
    <path
       style="display:inline;opacity:1;fill:#000000;stroke:none;filter:url(#filter6030)"
       d="m 519.25781,201.21484 c -0.28579,-0.009 -0.57268,10e-4 -0.85742,0.0312 -11.74803,5.35336 -18.08251,17.37386 -27.23633,25.84961 -12.55466,13.57442 -25.07706,27.21828 -38.75195,39.66797 1.30898,-7.08422 5.8187,-14.46245 3.19141,-21.82031 -2.6744,-5.34361 -11.82253,-3.92349 -13.25977,1.69922 -7.67172,13.88672 -17.52938,26.34734 -26.23047,39.57031 -0.0129,5.99897 6.34517,8.72749 9.66406,12.76367 3.74529,3.82835 11.04644,10.89448 11.5586,10.73438 9.30918,-1.48571 14.1622,-10.09538 21.76758,-14.62891 23.81449,-17.98001 49.14943,-33.99517 73.52343,-51.0957 3.61847,-2.33127 6.2256,-7.03463 4.15625,-11.22656 -1.57198,-3.96322 -6.54028,-6.1471 -10.39258,-4.09961 -6.89484,2.44912 -11.87297,8.17047 -18.31054,11.44336 5.80931,-10.26797 13.58029,-19.40547 18.79687,-29.98243 0.90314,-4.40619 -3.3323,-8.77448 -7.61914,-8.90625 z m -1.72656,6.66016 c 2.99617,-0.12366 2.94792,4.15914 0.98047,5.52734 -7.09504,9.68421 -14.25854,19.41997 -20.1875,29.85547 -1.11108,2.61813 0.23411,6.89267 3.67773,6.29102 6.38908,-0.8118 11.17316,-5.6523 16.51953,-8.77344 3.6874,-2.52785 7.20621,-6.03708 11.68164,-6.88672 2.56904,1.26754 1.02844,4.90676 -1.21874,5.66406 -25.22832,17.92547 -52.31785,33.31768 -76.11719,53.24415 -4.51028,3.43966 -8.51459,7.77731 -13.29883,10.69531 -4.24357,-0.9846 -5.60068,-5.87535 -9.17774,-7.98438 -2.86653,-2.62566 -5.73156,-5.26592 -7.99023,-8.39062 9.74638,-12.20271 17.55348,-25.88953 26.23047,-38.7461 2.2929,-0.35426 2.59079,2.52155 1.91602,4.08008 -1.06748,6.30756 -4.70518,13.06053 -1.68946,19.38477 2.60244,2.83795 6.47475,0.26636 8.4961,-1.9375 11.89578,-9.93609 23.05027,-20.76561 32.91601,-32.73438 8.76846,-10.10122 17.34756,-20.29503 27.26172,-29.28906 z"
       id="path4216"
       inkscape:connector-curvature="0" />
  </g>
  <g
     inkscape:groupmode="layer"
     id="layer2"
     inkscape:label="Head"
     style="display:inline">
    <path
       style="display:inline;opacity:1;fill:#000000;stroke:none;filter:url(#filter6030)"
       d="m 386.46875,290.62695 c -0.45979,-0.008 -0.92959,-0.006 -1.41992,0.006 -1.30756,0.0315 -2.7573,0.1338 -4.53516,0.30469 -13.18626,1.75094 -25.82064,8.80726 -33.4375,19.87109 -9.79255,13.81923 -12.38385,32.09156 -7.54492,48.24414 3.23546,11.83702 10.67877,22.54555 22.2793,27.58789 8.33222,3.46335 17.03263,5.61194 25.92187,5.91407 8.12345,0.0497 17.49761,-2.9971 24.88672,-6.08985 10.11891,-5.12968 16.23959,-12.72191 19.48047,-22.85546 5.81141,-16.241 5.11484,-35.3032 -4.41602,-50.0293 -6.53532,-10.72791 -17.33805,-18.92752 -29.76367,-21.36133 -5.52428,-1.00509 -8.23263,-1.53756 -11.45117,-1.5918 z m -1.30273,5.60938 c 4.94399,-0.0878 9.92326,0.67396 15.04687,2.00976 10.87168,2.47469 17.00382,8.49455 22.70703,18.2168 8.34945,13.1307 10.41334,30.70264 3.28711,44.68359 -2.45861,2.74707 -6.47881,0.98264 -8.29297,-1.56836 -8.92376,-8.06484 -17.91522,-16.0917 -27.25586,-23.67187 0.65742,-0.64382 1.33166,-1.26801 1.97657,-1.92578 0.70404,-2.80501 -2.87494,-3.87572 -4.79493,-2.49414 -0.50504,0.30531 -0.98185,0.6437 -1.46484,0.97656 -0.35186,-0.27613 -0.69383,-0.56523 -1.04688,-0.83984 -1.65454,-1.45598 -5.14992,-0.61603 -4.89062,1.70898 0.47527,0.92347 1.0628,1.74229 1.69336,2.52344 -3.23988,2.86083 -6.27468,5.97105 -9.83008,8.41601 -7.33837,6.02349 -13.79712,13.34381 -21.7793,18.40235 -4.42531,0.22137 -5.40207,-4.92543 -6.35742,-8.16211 -6.21029,-21.38593 5.36021,-46.98581 26.17383,-55.1875 4.97553,-2.06366 9.88413,-3.00013 14.82813,-3.08789 z m 1.22851,43.70117 c 2.49991,1.98114 5.1796,3.80562 7.30664,6.14453 8.93632,7.7219 18.77639,14.57271 26.70117,23.35156 0.42643,4.48895 -4.41436,6.82039 -7.4082,9.11329 -7.59912,4.7232 -20.58834,8.05201 -25.04492,8.02343 -3.8681,0.19626 -24.25267,-3.96643 -33.38281,-12.27539 -2.03595,-1.86634 -2.95185,-5.47286 -0.15235,-7.16601 10.23638,-9.51937 21.63029,-17.76943 31.98047,-27.19141 z"
       id="path4210"
       inkscape:connector-curvature="0" />
  </g>
</svg>
