<?xml version="1.0" encoding="UTF-8" standalone="no"?>
<!-- Created with Inkscape (http://www.inkscape.org/) -->

<svg
   xmlns:dc="http://purl.org/dc/elements/1.1/"
   xmlns:cc="http://creativecommons.org/ns#"
   xmlns:rdf="http://www.w3.org/1999/02/22-rdf-syntax-ns#"
   xmlns:svg="http://www.w3.org/2000/svg"
   xmlns="http://www.w3.org/2000/svg"
   xmlns:sodipodi="http://sodipodi.sourceforge.net/DTD/sodipodi-0.dtd"
   xmlns:inkscape="http://www.inkscape.org/namespaces/inkscape"
   width="19.315344mm"
   height="28.724871mm"
   viewBox="0 0 68.440195 101.78104"
   id="svg6273"
   version="1.1"
   inkscape:version="0.91 r13725"
   sodipodi:docname="hierofania.svg"
   style="enable-background:new">
  <defs
     id="defs6275">
    <filter
       inkscape:collect="always"
       style="color-interpolation-filters:sRGB"
       id="filter6030-1-2">
      <feBlend
         inkscape:collect="always"
         mode="darken"
         in2="BackgroundImage"
         id="feBlend6032-9-5" />
    </filter>
  </defs>
  <sodipodi:namedview
     id="base"
     pagecolor="#ffffff"
     bordercolor="#666666"
     borderopacity="1.0"
     inkscape:pageopacity="0.0"
     inkscape:pageshadow="2"
     inkscape:zoom="1.999789"
     inkscape:cx="-71.574297"
     inkscape:cy="3.0190355"
     inkscape:document-units="px"
     inkscape:current-layer="layer1"
     showgrid="false"
     inkscape:window-width="1366"
     inkscape:window-height="744"
     inkscape:window-x="0"
     inkscape:window-y="24"
     inkscape:window-maximized="1"
     fit-margin-top="0"
     fit-margin-left="0"
     fit-margin-right="0"
     fit-margin-bottom="0" />
  <metadata
     id="metadata6278">
    <rdf:RDF>
      <cc:Work
         rdf:about="">
        <dc:format>image/svg+xml</dc:format>
        <dc:type
           rdf:resource="http://purl.org/dc/dcmitype/StillImage" />
        <dc:title />
      </cc:Work>
    </rdf:RDF>
  </metadata>
  <g
     inkscape:label="Layer 1"
     inkscape:groupmode="layer"
     id="layer1"
     transform="translate(-203.41244,-198.01397)">
    <path
       style="fill:#333333;stroke:none;filter:url(#filter6030-1-2);fill-opacity:1"
       d="m 26.175781,29.498014 c -2.070914,3.783554 -1.568444,8.893074 1.386719,12.076172 0.103761,0.106762 0.213359,0.204893 0.324219,0.302734 -0.0081,9.5e-4 -0.01526,-0.0033 -0.02344,-0.002 -1.304901,0.398146 -1.917744,1.760866 -2.898437,2.574219 -2.673018,2.903473 -5.378771,6.075881 -6.31836,10.009765 -0.399767,1.625436 -0.569783,3.344316 -0.460937,5.035157 -0.195491,-0.15016 -0.432407,-0.242574 -0.681641,-0.232422 -1.128714,0.24212 -1.417088,1.522882 -1.957031,2.365234 -1.980563,3.534563 -2.368316,8.112447 -0.400391,11.736328 0.97198,1.782694 2.553775,3.107724 4.154297,4.304688 0.527713,0.374743 0.711488,1.009369 0.660157,1.630859 0.0357,1.487867 -0.05701,3.080327 0.675781,4.441406 1.400586,3.542988 3.799984,6.616832 6.535156,9.230469 0.652816,0.504276 1.789587,0.386918 2.105469,-0.447265 1.077435,-1.9864 2.082211,-4.016305 2.990234,-6.085938 0.472615,-1.154087 0.949731,-2.335598 1.214844,-3.548828 -0.0291,-0.276421 -0.328756,-0.507457 -0.498047,-0.595703 0.795717,-0.285166 0.800397,-1.699146 -0.09375,-1.833985 -3.26606,-0.613784 -6.512152,-1.553679 -9.517578,-3 -2.681066,-1.339022 -5.198645,-3.293197 -6.544922,-6.039062 -1.204069,-2.594527 -0.763864,-5.649408 0.367187,-8.1875 0.3188,-0.756095 0.755335,-1.455912 1.177735,-2.154297 0.26073,1.436031 0.750046,2.823397 1.537109,4.076172 0.569264,0.86381 1.57033,1.434135 2.619141,1.34375 4.120719,0.21615 8.089711,-1.567923 11.289062,-4.048828 0.244285,-0.115713 0.366917,-0.325143 0.41211,-0.556641 0.04681,0.301226 0.20233,0.578571 0.5,0.71875 2.640304,1.860628 5.620785,3.402409 8.865234,3.81836 1.113421,0.103132 2.280234,0.253776 3.371094,-0.06055 1.034437,-0.331934 1.725044,-1.246966 2.132812,-2.210938 0.463638,-0.931914 0.762606,-1.917854 0.953125,-2.925781 0.05211,0.06315 0.09985,0.128788 0.169922,0.179687 1.990003,2.890909 2.808315,6.771013 1.373047,10.080079 -1.835304,3.459899 -5.28805,5.718904 -8.902344,6.984374 -2.403958,0.974996 -4.975355,1.4769 -7.476562,2.13086 -0.657401,0.426086 -0.29206,1.475043 0.253906,1.716797 -0.502258,0.267939 -0.683856,0.962261 -0.330078,1.416015 1.194121,3.219522 2.568952,6.402749 4.419922,9.300782 0.724555,0.591317 1.7426,0.06518 2.257812,-0.560547 2.565267,-2.533089 4.663958,-5.560662 6.076172,-8.878907 0.585477,-1.599687 0.66284,-3.328867 0.601563,-5.009765 0.312699,-1.043571 1.469402,-1.395475 2.166015,-2.132813 1.861556,-1.588125 3.396386,-3.729959 3.708985,-6.208984 0.64662,-3.289546 -0.224201,-6.738516 -1.978516,-9.552734 -0.338227,-0.586249 -0.766619,-1.341895 -1.49414,-1.458985 -0.245103,8e-4 -0.455362,0.0921 -0.626954,0.232422 0.0979,-1.775996 -0.120037,-3.582622 -0.535156,-5.291015 -0.822268,-3.080667 -2.698855,-5.745367 -4.789062,-8.101563 -1.25701,-1.507192 -2.616604,-2.932436 -4.119141,-4.197266 -0.03146,0.0029 -0.06252,-0.0031 -0.09375,-0.0059 1.267474,-1.178557 2.027709,-2.898258 2.429687,-4.554688 0.890873,-3.388415 0.115876,-7.265668 -2.357421,-9.816406 -4.582061,-3.934174 -11.510124,-3.807779 -14.630858,1.994232 z m 15.529298,3.433627 c 0.296353,1.592435 0.180621,3.356084 -0.636719,4.771484 -0.631945,0.232978 -0.997584,-0.564418 -1.441406,-0.857422 -1.367652,-1.2033 -2.708558,-2.454194 -4.130859,-3.595703 0.05445,-0.0562 0.112157,-0.109204 0.166015,-0.166016 0.30241,-0.766853 -0.806211,-1.390658 -1.392578,-0.892578 -0.03119,0.0206 -0.05895,0.04543 -0.08984,0.06641 -0.08746,-0.06244 -0.169516,-0.132075 -0.257813,-0.193359 -0.578849,-0.239491 -1.425557,0.372271 -1.074219,1 0.03274,0.05492 0.07213,0.103822 0.107422,0.15625 -0.711546,0.619604 -1.393616,1.276177 -2.15039,1.835938 -1.080368,0.922804 -2.030284,2.05147 -3.277344,2.710937 -0.605013,-0.338568 -0.56628,-1.146586 -0.779297,-1.732422 -0.88506,-11.676572 12.974147,-11.497308 14.957028,-3.103519 z m -7.49804,1.560547 c 0.511815,0.404532 1.048567,0.785633 1.494141,1.257812 1.457426,1.226864 3.01647,2.347733 4.308594,3.757812 -0.213664,0.803067 -1.099555,1.110619 -1.730469,1.529297 -3.149017,1.552886 -7.239944,0.969146 -9.597656,-1.027343 -0.335853,-0.270559 -0.294758,-0.759022 0.109375,-0.947266 1.740817,-1.584454 3.663495,-2.988912 5.416015,-4.570312 z m -5.640625,7.904296 c 3.328361,1.970419 7.439918,1.562289 10.697266,0.46875 0.221098,-0.100388 0.424131,-0.223183 0.625,-0.349609 -0.05434,0.334652 0.05522,0.71379 0.326172,0.921875 3.105893,3.144505 5.870602,6.737491 7.548828,10.853516 0.698528,2.083639 0.473029,4.329476 0.261719,6.478515 -0.18723,1.232615 -0.54646,2.545869 -1.433594,3.460938 -1.232939,0.771926 -2.734918,0.206758 -4.03125,-0.05273 -2.683142,-0.706669 -5.087003,-2.128277 -7.445313,-3.546875 -0.500698,0.01389 -0.812152,0.421032 -0.886718,0.871094 -0.089,-0.458843 -0.451272,-0.880545 -0.958985,-0.800781 -0.758581,0.127973 -1.238393,0.823391 -1.9375,1.09375 -2.651929,1.570311 -5.664059,2.881069 -8.808593,2.759766 -1.340459,-0.399665 -1.753198,-1.951089 -1.96875,-3.15625 -0.444985,-2.269724 -0.507857,-4.684984 0.0957,-6.951172 1.508433,-4.131221 4.401487,-7.589462 7.33789,-10.798828 0.242476,-0.369332 0.643604,-0.802935 0.578128,-1.251959 z M 22.35743,79.513672 c 1.531693,0.424902 2.924786,1.243756 4.453125,1.691406 1.719149,0.598016 3.503907,1.083284 5.333984,1.128906 -0.597398,0.233614 -0.5101,0.998115 -0.791015,1.460938 -0.945703,2.502731 -1.89116,5.050737 -3.425782,7.25 -0.479667,-0.24463 -0.701899,-0.797252 -1.132812,-1.113281 -2.484073,-2.681879 -4.416946,-5.982164 -5.083984,-9.591797 0.01137,-0.356607 0.233831,-0.832116 0.646484,-0.826172 z m 23.859375,0 c 0.686043,0.222425 0.473611,1.077239 0.376953,1.609375 -0.401997,2.075664 -1.516661,3.905536 -2.550781,5.714844 -0.990268,1.547308 -2.133173,3.059636 -3.576172,4.208984 -0.382837,-0.347268 -0.470826,-0.906388 -0.798828,-1.302734 -1.291873,-2.354897 -2.09486,-4.937062 -3.246094,-7.361329 1.32133,-0.08472 2.612644,-0.425564 3.890625,-0.751953 2.008341,-0.591725 3.91121,-1.50906 5.904297,-2.117187 z"
       id="path4800-3-4"
       transform="translate(203.41244,198.01397)"
       inkscape:connector-curvature="0"
       sodipodi:nodetypes="cccccccccccccccccccccccccccccccccccccccccccccccccccccccccccccccccccccccccccccccccccccccccccccccccccccccccccc"
       inkscape:export-xdpi="384.16873"
       inkscape:export-ydpi="384.16873" />
    <path
       inkscape:connector-curvature="0"
       id="path4796-3-5"
       d="M 14.326172,49.132812 C 3.7403524,49.415396 2.1412918,67.05654 12.210938,69.654297 66.64806,91.182359 119.017,117.76456 170.68378,145.25595 c 9.79909,5.78474 20.83142,10.69923 29.14825,18.59561 2.33996,2.33452 1.57401,6.63065 -2.49023,5.97266 -10.20678,0.60974 -19.71997,-4.08225 -29.61524,-5.93164 -29.75508,-8.48037 -57.96449,-22.34287 -88.468748,-28.08985 -8.883206,0.0397 -11.747351,13.05196 -4.798828,17.85938 5.922163,4.41503 13.896793,4.06177 20.305952,7.5681 32.675164,11.41705 65.242184,25.8497 100.196004,28.19167 12.23985,0.006 26.88825,-7.38106 27.84961,-20.89649 0.54473,-13.54622 -12.16456,-22.2642 -21.81864,-29.39601 C 172.66823,119.22853 140.65861,105.51566 110.55239,88.71493 80.305964,73.410265 49.670272,57.708183 16.748047,49.164062 c -0.807219,-0.0095 -1.614455,-0.06371 -2.421875,-0.03125 z"
       style="fill:#333333;stroke:none;filter:url(#filter6030-1-2);fill-opacity:1"
       transform="matrix(0.08856286,0,0,0.08856286,246.41504,236.26859)"
       inkscape:export-xdpi="384.16873"
       inkscape:export-ydpi="384.16873" />
    <path
       inkscape:connector-curvature="0"
       id="path4792-0-3"
       d="m 171.21289,-335.83203 c -21.454,7.55018 -34.22379,28.05408 -49.13193,43.84443 -25.872728,27.57827 -51.252244,55.68222 -78.662991,81.76885 3.813665,-11.80249 8.13495,-26.55901 0.04883,-37.53516 -9.434174,-10.25382 -28.91481,-5.2579 -32.471068,8.17327 -15.584831,28.2964 -36.508251,53.75396 -53.532838,81.09431 -0.573036,12.71772 11.488517,20.40195 19.626953,28.0918 8.502909,8.97891 16.9500748,18.06971 26.4531248,26.01562 19.6410462,-2.04328 31.2648992,-20.0843 46.0996092,-30.6914 50.83308,-38.01301 104.74,-71.91071 156.42383,-108.83789 10.31501,-8.11101 10.73276,-25.82707 -0.31446,-33.47461 -8.14416,-6.31174 -19.41945,-3.93964 -27.41406,1.33398 -5.5604,3.00114 -10.61852,6.81741 -15.68164,10.57031 10.29234,-15.93559 22.58834,-30.99913 29.79883,-48.64648 1.4513,-11.60187 -9.81222,-22.59934 -21.24219,-21.70703 z m -1.16797,22.29883 c -0.9759,5.57929 -6.80523,9.05701 -9.24404,14.08245 -12.6145,17.78424 -26.30245,35.26379 -35.56455,55.05622 -2.09554,8.06999 5.5615,18.14152 14.20312,15.19336 16.03776,-3.41598 28.23715,-15.3183 41.61217,-23.95522 3.70983,-2.64846 8.75774,-6.97278 12.72963,-6.82213 -3.36698,5.04185 -10.06933,6.9173 -14.47681,10.99938 -55.40402,37.91996 -113.58937,72.40717 -163.841735,117.28466 -2.880539,2.45409 -6.8323158,6.90916 -9.9998144,2.33706 -8.7872572,-10.02808 -17.7013996,-17.57213 -26.0429686,-26.58985 18.1078704,-22.84957 32.418196,-48.35175 48.982422,-72.2832 -2.913154,13.18552 -9.656412,27.33916 -4.15625,40.76563 2.664166,8.14044 13.605814,8.14923 19.419922,3.44531 31.752878,-25.70558 60.034524,-55.50562 86.020294,-86.99691 12.8392,-14.68668 25.97638,-29.51339 40.35861,-42.51676 z"
       style="fill:#333333;stroke:none;filter:url(#filter6030-1-2);fill-opacity:1"
       transform="matrix(0.08856286,0,0,0.08856286,246.41504,236.26859)"
       sodipodi:nodetypes="cccccccccccccccccccccccccccccc"
       inkscape:export-xdpi="384.16873"
       inkscape:export-ydpi="384.16873" />
    <path
       inkscape:connector-curvature="0"
       id="path4833-5-7"
       d="m -214.56445,49.066406 c -27.62598,5.175228 -51.83844,20.421145 -77.36936,31.349006 -40.3657,19.892158 -81.14589,39.813548 -117.56033,66.484978 -8.23505,6.63136 -15.46455,18.67309 -9.44141,28.96289 6.7635,12.48287 22.92641,15.43457 35.81157,12.76889 31.94917,-3.44665 60.77682,-18.97311 91.45796,-27.38217 7.8899,-3.10326 17.06823,-5.9074 22.75,-12.2168 3.2322,-9.26595 -9.53289,-17.64599 -17.15429,-11.9707 -37.29202,10.16652 -72.5107,29.086 -111.20313,32.81445 -3.48488,-1.15399 -2.72964,-5.37337 0.20313,-6.69336 12.73536,-12.44759 30.13638,-17.96639 45.15794,-27.09588 47.13912,-24.72552 95.28424,-47.678178 144.35768,-68.300601 8.05798,-5.975954 3.24741,-19.618492 -7.00976,-18.720703 z"
       style="fill:#333333;stroke:none;filter:url(#filter6030-1-2);fill-opacity:1"
       transform="matrix(0.08856286,0,0,0.08856286,246.41504,236.26859)"
       inkscape:export-xdpi="384.16873"
       inkscape:export-ydpi="384.16873" />
    <path
       inkscape:connector-curvature="0"
       id="path4837-7-4"
       d="m -372.5625,-336.17773 c -13.51689,1.10547 -23.77349,18.99153 -14.70117,30.26367 8.17774,13.83868 17.56095,26.98597 26.31445,40.40429 -10.40416,-7.69395 -22.43042,-17.00768 -36.14844,-15.25976 -15.78341,3.63612 -21.08271,28.20487 -6.80876,36.96495 40.03846,30.56049 83.86141,55.70221 124.28941,85.73449 22.67714,16.1027 44.02419,33.95899 65.96076,50.93923 8.128,3.91534 18.27451,0.0753 22.69531,-7.54102 11.70927,-12.52376 26.29375,-22.96426 34.90039,-38.02343 1.84069,-12.20313 -9.33535,-20.5018 -15.61914,-29.32227 -17.13365,-21.79525 -28.97898,-47.30492 -46.49804,-68.77344 -11.2855,-7.67701 -30.20332,1.85884 -28.32422,16.10938 0.0162,8.42539 2.45799,16.58721 4.83789,24.58984 -40.89353,-37.94471 -75.21537,-82.35705 -116.11867,-120.25032 -4.35427,-3.05095 -9.33613,-5.75147 -14.77977,-5.83561 z m 5.60352,23.88281 c 6.96383,5.85094 12.39958,13.31775 19.18637,19.38103 33.21252,36.17361 63.77065,75.37904 102.36558,106.20655 5.50986,5.21189 16.01182,8.92695 21.39141,1.59992 7.63124,-10.60679 1.58675,-24.19546 -0.74805,-35.49219 -0.39419,-2.15417 -1.73199,-6.82495 -1.16602,-7.54687 9.85565,13.53969 16.18613,29.36309 26.89473,42.41517 6.9085,10.08907 14.10717,19.97685 21.41191,29.78209 -9.44366,9.97735 -19.6714,20.14771 -29.68359,28.9961 -8.55455,-3.49398 -13.02477,-12.48516 -20.99985,-16.94497 -46.04994,-38.44517 -97.1089,-70.14148 -146.99527,-103.21929 -5.76876,-4.1412 -12.40168,-8.64292 -16.59668,-13.95098 3.77197,-0.60874 5.44321,4.20436 8.82032,5.24609 15.20616,10.55477 30.22221,24.05314 49.13085,27.12891 10.09819,-0.93062 14.13696,-14.64743 7.70313,-21.86914 -7.25738,-13.52973 -17.22155,-25.3747 -25.01102,-38.57418 -5.34245,-7.4564 -12.75195,-14.82743 -15.70382,-23.15824 z"
       style="fill:#333333;stroke:none;filter:url(#filter6030-1-2);fill-opacity:1"
       transform="matrix(0.08856286,0,0,0.08856286,246.41504,236.26859)"
       inkscape:export-xdpi="384.16873"
       inkscape:export-ydpi="384.16873" />
    <path
       style="opacity:1;fill:#333333;stroke:none;stroke-opacity:1;fill-opacity:1"
       id="path10784"
       d="m 235.58967,270.02532 c 0.28225,0 0.56446,0 0.84671,0 0.34033,0 0.68065,0 1.02094,0 0.24344,0 0.48683,0 0.73018,0 0.18251,0 0.36498,0 0.54744,0 0.29324,0.028 0.50877,0.14384 0.5748,0.49238 0.023,0.12109 -0.0386,0.24709 -0.0923,0.35802 -0.0532,0.10997 -0.18242,0.17357 -0.28092,0.23255 -0.1535,0.0857 -0.30607,0.17253 -0.46352,0.25095 -0.20592,0.11031 -0.41092,0.22209 -0.61371,0.33806 -0.21092,0.11644 -0.40397,0.25933 -0.60032,0.39772 -0.16021,0.1052 -0.30018,0.23623 -0.44724,0.35821 -0.16232,0.12847 -0.31697,0.26599 -0.46798,0.4075 -0.15304,0.15426 -0.31862,0.29497 -0.49295,0.4244 -0.0867,0.0726 -0.19047,0.1239 -0.2771,0.19613 -0.009,0.007 0.0216,-0.0102 0.0285,-0.0196 0.0446,-0.0624 0.0828,-0.12929 0.12416,-0.19393 -0.10862,-0.50628 0.0281,-0.41179 -0.28529,-0.607 -0.0382,-0.0237 -0.0668,-0.008 -0.0548,-0.0214 0.007,-0.008 0.0207,-0.008 0.0313,-0.0104 0.0345,-0.008 0.0699,-0.0146 0.10475,-0.022 0.27204,-0.0706 0.54339,-0.14247 0.82008,-0.19261 0.21429,-0.0501 0.42991,-0.0914 0.6487,-0.11507 0.1632,-0.004 0.32235,-0.0376 0.48412,-0.0571 0.19267,-0.0212 0.38645,-0.0274 0.58009,-0.0306 0.13496,-0.0287 0.27232,-0.0456 0.40963,-0.0586 0.15984,-0.0131 0.32028,-0.0144 0.48053,-0.0153 0.10724,-0.004 0.23052,0.009 0.32069,-0.0111 0.70761,-0.13903 0.90424,0.86168 0.19659,1.00071 l 0,0 c -0.16969,0.0316 -0.33941,0.0343 -0.51153,0.0302 -0.13078,4.6e-4 -0.2617,0.001 -0.39215,0.011 -0.16334,0.0146 -0.3235,0.0498 -0.48702,0.0628 -0.15915,0.003 -0.31849,0.007 -0.4769,0.0237 -0.16591,0.0191 -0.32989,0.0544 -0.49728,0.0586 -0.19479,0.0197 -0.3853,0.0633 -0.57641,0.10484 -0.26707,0.0466 -0.52707,0.12307 -0.79033,0.18684 -0.17589,0.0367 -0.42705,0.10209 -0.60027,0.0271 -0.0876,-0.038 -0.19944,-0.0622 -0.24721,-0.1449 -0.0886,-0.15344 -0.089,-0.34301 -0.13354,-0.51451 0.046,-0.0797 0.0842,-0.16419 0.13772,-0.23898 0.0869,-0.1215 0.25723,-0.16973 0.36153,-0.27235 0.14365,-0.10138 0.27199,-0.22253 0.39739,-0.34521 0.1666,-0.1559 0.33697,-0.3077 0.51581,-0.44958 0.16807,-0.13773 0.32713,-0.28717 0.51005,-0.40608 0.22266,-0.15594 0.44182,-0.31689 0.68043,-0.44866 0.22003,-0.12581 0.44246,-0.24728 0.66631,-0.36611 0.14738,-0.0729 0.2891,-0.15566 0.43294,-0.23511 -0.0294,0.0328 -0.0864,0.0956 -0.0926,0.11326 -0.0349,0.10029 -0.0888,0.20925 -0.0629,0.31219 0.0551,0.21873 0.21121,0.41223 0.43814,0.40897 -0.18246,0 -0.36493,0 -0.54744,0 -0.24335,0 -0.48674,0 -0.73018,0 -0.34029,0 -0.68061,0 -1.02094,0 -0.28225,0 -0.56446,0 -0.84671,0 -0.72112,0 -0.72112,-1.01984 0,-1.01984 z"
       inkscape:connector-curvature="0"
       inkscape:export-xdpi="384.16873"
       inkscape:export-ydpi="384.16873" />
  </g>
</svg>
