<svg xmlns="http://www.w3.org/2000/svg" viewBox="0 0 744.09448819 1052.3622047">
    <defs>
        <filter id="a" color-interpolation-filters="sRGB">
            <feBlend mode="darken" in2="BackgroundImage"/>
        </filter>
    </defs>
    <g fill="#4d4d4d">
        <path d="M69.539 29.7c-1.989.204-3.651 2.836-2.238 4.526 2.134 3.62 4.702 6.972 6.812 10.6-2.873-1.484-5.147-4.373-8.516-4.766-2.597.028-3.928 3.83-1.9 5.476 5.673 4.486 11.986 8.108 17.877 12.305 6.127 4.153 12.077 8.576 17.72 13.363 1.069.749 2.716.633 3.432-.549 2.226-2.426 4.949-4.474 6.803-7.197.304-2.2-1.938-3.481-2.91-5.154-3.083-3.985-5.38-8.537-8.377-12.559-1.654-1.17-4.567.135-4.266 2.297-.006 2.391 1.12 4.723 1.524 6.945-8.396-7.439-15.317-16.349-23.389-24.103-.76-.558-1.613-1.101-2.572-1.184zm102.408.063c-4.537 2.067-6.984 6.71-10.52 9.984-4.848 5.243-9.685 10.512-14.966 15.32.505-2.736 2.247-5.586 1.232-8.427-1.033-2.064-4.566-1.516-5.12.656-2.964 5.363-6.771 10.176-10.132 15.283-.005 2.317 2.45 3.37 3.733 4.93 1.446 1.478 2.842 3.015 4.425 4.351 3.596-.573 5.508-4.104 8.446-5.855 9.198-6.944 18.982-13.13 28.396-19.735 1.398-.9 2.405-2.716 1.606-4.335-.607-1.531-2.526-2.375-4.014-1.584-2.663.945-4.586 3.155-7.072 4.42 2.243-3.966 5.245-7.495 7.26-11.58.372-1.816-1.514-3.614-3.274-3.428zm-.336 2.56c1.157-.048 1.139 1.607.379 2.135-2.74 3.74-5.507 7.5-7.797 11.531-.429 1.011.09 2.662 1.42 2.43 2.468-.314 4.316-2.183 6.38-3.389 1.425-.976 2.784-2.332 4.513-2.66.992.49.397 1.895-.471 2.188-9.744 6.923-20.207 12.868-29.398 20.564-1.742 1.329-3.29 3.004-5.137 4.13-1.64-.38-2.164-2.269-3.545-3.083-1.107-1.014-2.214-2.033-3.086-3.24 3.764-4.713 6.78-10 10.13-14.965.886-.137 1.002.974.741 1.576-.412 2.436-1.817 5.044-.652 7.486 1.005 1.096 2.5.103 3.281-.748 4.594-3.837 8.902-8.02 12.713-12.642 3.386-3.902 6.7-7.84 10.53-11.313zm-101.517.063c1.526.469 2.201 2.097 3.441 2.992 6.515 6.785 12.114 14.51 19.527 20.39.892.856 2.091 2.044 3.428 1.604 1.553-1.297.761-3.547.416-5.201-.406-1.529-.855-3.256-.611-4.813 2.571 2.152 3.461 5.561 5.54 8.11 1.695 2.563 3.508 5.046 5.346 7.508-1.868 2.217-4.216 4.078-6.15 6.265-1.897-.04-2.736-2.075-4.23-2.931-7.685-6.39-15.972-12.002-24.42-17.323-2.56-1.736-5.306-3.401-7.471-5.574-.176-1.006 1.486-1.547 1.955-.633 3.068 2.037 5.959 4.72 9.596 5.698 1.276.024 2.02-1.59 1.27-2.59-1.05-2.38-2.934-4.26-4.137-6.555-1.329-2.081-3.273-3.859-4.08-6.223-.02-.342.19-.747.58-.724zm52.22 31.908c-.289-.008-.57.008-.799.023-.283-.004-.567.005-.851.014a30.07 30.07 0 0 0-1.326-.006c-.228-.036-.464.04-.67.172-5.093.676-9.949 3.309-12.89 7.582-3.783 5.337-4.784 12.394-2.915 18.633 1.25 4.572 4.059 9.003 8.54 10.95 2.065.923 4.336 1.037 6.458 1.776 1.117.273 2.366.5 3.553.41 3.207.206 6.429-1.207 9.447-2.138 3.974-1.521 6.502-5.325 7.754-9.238 2.245-6.273 1.976-13.635-1.705-19.323-2.524-4.143-6.697-7.31-11.496-8.25a21.7 21.7 0 0 0-1.904-.338c-.315-.192-.764-.256-1.196-.267zm-1.318 1.998c1.288.12 2.59.177 3.824.61 4.199.955 8.047 3.606 10.25 7.36 3.225 5.072 4.022 11.859 1.27 17.258-.95 1.061-2.503.38-3.203-.605-3.447-3.115-6.92-6.215-10.528-9.143.254-.248.515-.49.764-.744.272-1.083-1.11-1.496-1.852-.963-.195.118-.38.249-.566.377-.136-.106-.268-.218-.404-.324-.64-.562-1.99-.238-1.89.66.184.357.412.673.655.975-1.251 1.105-2.423 2.306-3.797 3.25-2.834 2.326-5.329 5.154-8.412 7.107-1.709.086-2.086-1.902-2.455-3.152-2.398-8.26 2.07-18.147 10.11-21.314 1.95-.823 4.112-1.005 6.234-1.352zm-.033 17.037c.965.765 2 1.47 2.822 2.373 3.451 2.983 7.252 5.629 10.312 9.02.165 1.733-1.705 2.634-2.86 3.52-2.936 1.823-6.302 2.411-9.604 3.214-4.563-.808-9.437-1.648-12.963-4.857-.787-.721-1.14-2.114-.059-2.768 3.954-3.677 8.354-6.863 12.352-10.502zm13.584 17.455c-.083-.007-.163-.003-.23.045-1.064.53-.356 1.961.425 2.393 6.549 6.872 12.53 14.586 15.99 23.484 1.227 4.002.837 8.24.592 12.363-.357 3.128-1.106 6.462-3.184 8.938-2.284 1.897-5.49 1.165-8.12.607-6.233-1.319-11.834-4.572-17.25-7.834-1.384.301-1.42 2.512-.051 2.85 6.843 5.048 15.213 8.728 23.869 8.139 1.965-.192 3.79-1.373 4.629-3.184 3.62-5.844 3.761-13.127 2.654-19.717-1.23-6.535-4.629-12.485-9.008-17.424-3.038-3.828-6.341-7.467-10.074-10.633-.076 0-.16-.02-.242-.027zm-27.014.01c-2.337.858-3.446 3.323-5.295 4.83-5.64 6.145-11.473 12.744-13.57 21.035-1.717 6.638-1.646 13.959 1.213 20.272 1.017 2.065 2.49 4.566 5.066 4.709 8.962.874 17.755-2.914 24.676-8.377 1.218-.41.8-2.3-.397-2.375-1.16-.027-1.832 1.176-2.857 1.54-6.064 3.757-12.936 6.867-20.186 6.71-2.87-.576-4.273-3.625-4.76-6.236-1.241-5.031-1.262-10.31-.359-15.366 2.767-8.387 8.367-15.45 14.076-22.035 1.208-1.226 2.54-2.447 3.159-4.1-.136-.306-.387-.65-.766-.607zm-8.266 1.555c-4.363.781-8.196 3.176-12.246 4.847-7.956 3.832-15.906 7.792-23.228 12.75-1.336 1.089-3.09 2.582-2.701 4.508.636 2.251 3.275 3.162 5.4 2.778 5.492-.267 10.456-2.93 15.656-4.43 2.102-.701 4.304-1.3 6.125-2.62.326-1.216-1.268-2.008-2.18-1.302-7.074 1.963-13.764 5.417-21.081 6.297-1.024-.037-2.021-1.302-1.108-2.15 1.706-2.165 4.455-3.049 6.73-4.457 9.556-5.007 19.23-9.85 29.223-13.899.897-.399 1.024-1.752.073-2.17a1.364 1.364 0 0 0-.663-.152zm43.31.014c-1.404-.053-1.518 2.304-.134 2.43 3.483 1.462 6.994 2.853 10.381 4.534 7.998 3.76 15.96 7.645 23.58 12.123.964.656 2.541 1.781 1.846 3.098-1.299 1.268-3.19.285-4.701.067-6.054-1.437-11.734-4.176-17.772-5.702-.73-.225-1.79-.439-1.974.55-.227.902.61 1.7 1.478 1.693 6.65 2.223 13.158 5.2 20.168 6.123 2.056.172 4.707-.42 5.42-2.627.585-2.008-1.261-3.594-2.67-4.688-4.543-3.57-9.94-5.781-14.924-8.637-6.518-3.4-13.11-6.8-20.162-8.955-.178-.009-.357.003-.535-.01zm13.927 35.414c-1.59.093-2.174 2.466-.875 3.34 4.393 6.305 6.166 14.776 3.228 21.992-3.754 7.368-10.92 12.4-18.5 15.162-5.352 2.207-11 3.59-16.635 4.767-1.224.65-.444 2.58.844 2.487 2.085.232 4.124-.493 6.17-.772 5.375-1.16 10.38-3.567 15.537-5.34 1.49-.028 2.377 1.594 1.998 2.924-.27 4.217-2.556 7.97-4.39 11.682-2.476 4.282-5.49 8.403-9.313 11.568-1.312.07-1.478-1.643-2.15-2.404-2.959-5.188-4.826-10.865-7.238-16.318-1.07-.768-2.46.885-1.573 1.822 2.44 6.837 5.454 13.521 9.23 19.71 1.261 1.032 2.871-.085 3.753-1.083 5.059-4.84 9.01-10.748 12.146-16.977 1.615-3.627 2.21-7.67 1.836-11.611.094-1.797 1.482-3.121 2.945-3.955 4.312-3.372 8.475-7.723 9.41-13.332 1.557-6.451.354-13.435-2.91-19.145-.858-1.585-1.66-3.42-3.156-4.474a1.16 1.16 0 0 0-.357-.043zm-71.201.054c-2.036.877-2.387 3.348-3.588 4.973-2.928 5.506-4.13 12.01-2.77 18.144.966 5.181 4.185 9.725 8.393 12.817 1.289 1.128 2.925 2.076 3.787 3.568.774 3.583-.344 7.494 1.394 10.883 2.758 7.52 7.823 13.957 13.405 19.594.914.889 2.663 1.464 3.558.254 1.379-2.016 2.185-4.325 3.4-6.432 2.271-4.563 4.458-9.208 5.792-14.144-.405-1.213-2.426-.887-2.426.384-2.26 6.068-4.5 12.23-8.164 17.614-1.208.418-1.835-1.12-2.625-1.743-5.678-5.785-9.97-13.052-11.764-20.98-.288-1.45.47-3.611 2.277-3.272 2.126.399 3.99 1.628 6.036 2.3 5.045 1.994 10.375 3.742 15.85 3.693 1.187-.248 1.503-2.283.171-2.537-2.845-.611-5.734-1.046-8.488-2.016-8.386-2.39-17.064-5.815-22.895-12.64-2.877-3.218-4.94-7.353-4.904-11.696-.274-5.878 1.89-11.78 5.303-16.572.424-1.038-.675-2.346-1.742-2.192z" filter="url(#a)" transform="matrix(4.88047 0 0 4.88047 -209.866 -76.978)"/>
        <path d="M360.762 721.263H394.144c3.112.297 5.4 1.527 6.1 5.226.244 1.285-.41 2.622-.98 3.8-.565 1.167-1.936 1.842-2.981 2.468-1.63.909-3.249 1.83-4.92 2.663a268.408 268.408 0 0 0-6.513 3.588c-2.24 1.236-4.288 2.753-6.372 4.221-1.7 1.117-3.186 2.507-4.747 3.802-1.722 1.364-3.364 2.823-4.966 4.325a45.833 45.833 0 0 1-5.232 4.504c-.92.77-2.022 1.315-2.941 2.082-.093.079.23-.108.302-.208.474-.663.879-1.372 1.318-2.058-1.153-5.373.298-4.37-3.028-6.442-.405-.252-.709-.087-.582-.228.078-.087.22-.083.332-.11.366-.087.742-.155 1.112-.233 2.887-.75 5.767-1.512 8.704-2.045 2.274-.531 4.563-.97 6.885-1.221 1.732-.044 3.421-.399 5.138-.606 2.045-.225 4.101-.291 6.157-.325 1.432-.305 2.89-.484 4.347-.623 1.697-.139 3.4-.152 5.1-.162 1.138-.04 2.447.1 3.404-.118 7.51-1.475 9.597 9.145 2.086 10.621-1.8.335-3.602.364-5.429.32-1.388.005-2.777.015-4.162.117-1.733.155-3.433.529-5.169.667-1.689.03-3.38.074-5.061.251-1.761.203-3.502.578-5.278.622-2.067.21-4.09.672-6.118 1.113-2.834.494-5.594 1.306-8.388 1.983-1.867.39-4.532 1.083-6.37.287-.93-.403-2.117-.66-2.624-1.537-.94-1.629-.945-3.64-1.418-5.461.488-.846.894-1.743 1.462-2.536.922-1.29 2.73-1.802 3.837-2.891 1.525-1.076 2.887-2.362 4.218-3.664 1.768-1.654 3.576-3.266 5.474-4.771 1.784-1.462 3.472-3.048 5.414-4.31 2.363-1.655 4.689-3.364 7.221-4.762a256.919 256.919 0 0 1 7.072-3.886c1.564-.774 3.068-1.652 4.595-2.495-.312.348-.917 1.014-.982 1.202-.371 1.064-.942 2.22-.668 3.313.585 2.322 2.242 4.376 4.65 4.34h-33.381c-7.654 0-7.654-10.823 0-10.823z"/>
    </g>
</svg>
