<svg xmlns="http://www.w3.org/2000/svg" width="169.242" height="110.585" viewBox="0 0 158.66423 103.67339">
    <defs>
        <filter id="a" color-interpolation-filters="sRGB">
            <feBlend mode="darken" in2="BackgroundImage"/>
        </filter>
    </defs>
    <path fill="white" d="M271.9 335.598c-.914.093-1.679 1.303-1.029 2.08.981 1.664 2.162 3.207 3.133 4.875-1.321-.682-2.367-2.01-3.916-2.192-1.195.013-1.806 1.76-.873 2.518 2.609 2.063 5.51 3.728 8.219 5.658 2.817 1.91 5.555 3.945 8.15 6.147.491.344 1.249.29 1.578-.254 1.024-1.116 2.274-2.057 3.127-3.309.14-1.012-.89-1.602-1.338-2.371-1.417-1.832-2.473-3.924-3.851-5.773-.761-.538-2.102.06-1.963 1.054-.003 1.1.515 2.174.7 3.196-3.86-3.421-7.041-7.519-10.753-11.084-.35-.257-.742-.507-1.184-.545zm.256 1.234c.702.216 1.012.966 1.582 1.377 2.996 3.12 5.57 6.67 8.979 9.375.41.393.961.94 1.576.738.714-.596.35-1.632.191-2.392-.187-.703-.393-1.497-.28-2.213 1.182.989 1.592 2.558 2.548 3.73a73.653 73.653 0 0 0 2.457 3.451c-.86 1.02-1.939 1.875-2.828 2.881-.873-.018-1.258-.953-1.945-1.347-3.534-2.939-7.344-5.518-11.229-7.965-1.177-.799-2.44-1.566-3.436-2.565-.08-.462.683-.71.899-.289 1.41.937 2.742 2.17 4.414 2.62.587.01.927-.732.582-1.192-.482-1.094-1.347-1.958-1.9-3.014-.611-.957-1.506-1.774-1.877-2.861-.01-.157.088-.344.267-.334zM318.992 335.627c-2.086.95-3.212 3.084-4.838 4.59-2.23 2.41-4.454 4.834-6.883 7.045.233-1.258 1.033-2.568.567-3.875-.475-.95-2.098-.696-2.354.302-1.362 2.467-3.112 4.68-4.658 7.028-.002 1.065 1.126 1.55 1.715 2.267.665.68 1.307 1.386 2.035 2 1.653-.263 2.534-1.888 3.885-2.693 4.23-3.193 8.728-6.037 13.057-9.074.642-.414 1.105-1.25.738-1.994-.28-.704-1.162-1.092-1.846-.729-1.224.435-2.108 1.452-3.252 2.033 1.032-1.823 2.412-3.445 3.338-5.324.171-.835-.695-1.662-1.504-1.576zm-.154 1.178c.532-.022.523.737.174.98-1.26 1.72-2.533 3.45-3.586 5.303-.198.465.042 1.224.654 1.117 1.135-.144 1.984-1.004 2.934-1.559.655-.448 1.279-1.071 2.074-1.222.456.225.182.871-.217 1.006-4.48 3.183-9.29 5.918-13.517 9.457-.802.61-1.514 1.38-2.364 1.898-.753-.175-.993-1.043-1.629-1.418-.509-.466-1.018-.935-1.42-1.49 1.731-2.167 3.118-4.598 4.659-6.88.407-.064.461.447.341.724-.19 1.12-.836 2.32-.3 3.443.462.504 1.15.046 1.51-.346 2.112-1.764 4.093-3.686 5.845-5.812 1.557-1.794 3.081-3.604 4.842-5.201zM296.168 351.504v.002a3.815 3.815 0 0 0-.367.01c-.13-.002-.26.002-.39.006a13.844 13.844 0 0 0-.612-.002.449.449 0 0 0-.307.078c-2.342.311-4.575 1.521-5.928 3.486-1.739 2.455-2.199 5.7-1.34 8.569.575 2.102 1.866 4.14 3.926 5.035.95.424 1.995.476 2.971.816.514.126 1.087.23 1.633.19 1.475.094 2.958-.554 4.346-.983 1.827-.7 2.988-2.45 3.564-4.25 1.032-2.884.91-6.27-.783-8.884-1.16-1.906-3.08-3.361-5.287-3.793a9.948 9.948 0 0 0-.875-.157c-.145-.088-.353-.117-.551-.123zm-.605.92c.592.055 1.19.082 1.757.281 1.931.44 3.702 1.658 4.715 3.385 1.483 2.332 1.848 5.452.582 7.935-.436.488-1.15.174-1.472-.279-1.585-1.432-3.181-2.857-4.84-4.203.116-.114.237-.225.351-.342.125-.498-.51-.689-.851-.443-.09.054-.176.115-.262.174-.063-.05-.123-.102-.186-.15-.293-.26-.915-.109-.869.304.085.164.19.308.301.447-.575.508-1.113 1.06-1.744 1.494-1.303 1.07-2.452 2.371-3.87 3.27-.785.04-.958-.875-1.128-1.45-1.103-3.798.952-8.345 4.648-9.802.898-.378 1.892-.461 2.867-.621zm-.016 7.834c.444.352.92.676 1.299 1.092 1.587 1.371 3.334 2.589 4.742 4.148.076.797-.785 1.21-1.317 1.617-1.35.84-2.897 1.11-4.416 1.479-2.098-.372-4.339-.759-5.96-2.235-.362-.331-.525-.97-.028-1.271 1.818-1.69 3.842-3.157 5.68-4.83z" transform="translate(-700.277 -879.753) scale(2.64163)" filter="url(#a)"/>
</svg>
