<?xml version="1.0" encoding="UTF-8" standalone="no"?>
<!-- Created with Inkscape (http://www.inkscape.org/) -->

<svg
   xmlns:dc="http://purl.org/dc/elements/1.1/"
   xmlns:cc="http://creativecommons.org/ns#"
   xmlns:rdf="http://www.w3.org/1999/02/22-rdf-syntax-ns#"
   xmlns:svg="http://www.w3.org/2000/svg"
   xmlns="http://www.w3.org/2000/svg"
   xmlns:sodipodi="http://sodipodi.sourceforge.net/DTD/sodipodi-0.dtd"
   xmlns:inkscape="http://www.inkscape.org/namespaces/inkscape"
   width="100%"
   height="100%"
   viewBox="0 0 744.09448819 1052.3622047"
   id="svg6473"
   version="1.1"
   inkscape:version="0.91 r13725"
   sodipodi:docname="hierofania-brand.svg">
  <defs
     id="defs6475">
    <filter
       inkscape:collect="always"
       style="color-interpolation-filters:sRGB"
       id="filter6030">
      <feBlend
         inkscape:collect="always"
         mode="darken"
         in2="BackgroundImage"
         id="feBlend6032" />
    </filter>
  </defs>
  <sodipodi:namedview
     id="base"
     pagecolor="#ffffff"
     bordercolor="#666666"
     borderopacity="1.0"
     inkscape:pageopacity="0.0"
     inkscape:pageshadow="2"
     inkscape:zoom="0.51914344"
     inkscape:cx="138.57319"
     inkscape:cy="479.52349"
     inkscape:document-units="px"
     inkscape:current-layer="layer1"
     showgrid="false"
     inkscape:window-width="1366"
     inkscape:window-height="744"
     inkscape:window-x="0"
     inkscape:window-y="24"
     inkscape:window-maximized="1" />
  <metadata
     id="metadata6478">
    <rdf:RDF>
      <cc:Work
         rdf:about="">
        <dc:format>image/svg+xml</dc:format>
        <dc:type
           rdf:resource="http://purl.org/dc/dcmitype/StillImage" />
      </cc:Work>
    </rdf:RDF>
  </metadata>
  <g
     inkscape:label="Layer 1"
     inkscape:groupmode="layer"
     id="layer1">
    <g
       id="g10888"
       transform="matrix(4.8804669,0,0,4.8804669,-209.86645,-76.977854)"
       style="fill:#4d4d4d">
      <path
         inkscape:connector-curvature="0"
         id="path4800-4"
         d="m 69.538873,29.700172 c -1.988418,0.203473 -3.651183,2.836081 -2.238281,4.525391 2.13422,3.620221 4.702171,6.972161 6.8125,10.599609 -2.873493,-1.482962 -5.146834,-4.371824 -8.515626,-4.765625 -2.597821,0.0283 -3.928333,3.830153 -1.90039,5.476563 5.673366,4.485946 11.98575,8.10758 17.876948,12.30469 6.12685,4.15321 12.07649,8.576 17.72071,13.36328 1.068246,0.74868 2.715006,0.63313 3.431636,-0.54883 2.22556,-2.42612 4.94858,-4.47469 6.80273,-7.19726 0.3039,-2.20043 -1.93828,-3.48143 -2.91015,-5.1543 -3.08294,-3.98496 -5.37912,-8.536723 -8.376956,-12.558596 -1.65414,-1.169212 -4.56739,0.13497 -4.26562,2.296875 -0.006,2.391529 1.12023,4.722721 1.52344,6.945311 C 87.104264,47.548225 80.183304,38.638373 72.111138,30.883766 71.350653,30.326005 70.4983,29.782608 69.538873,29.700172 Z m 102.408197,0.0625 c -4.5374,2.067612 -6.98408,6.71082 -10.51953,9.984375 -4.84894,5.242801 -9.6852,10.511917 -14.9668,15.320313 0.50556,-2.73611 2.24716,-5.585937 1.23243,-8.427735 -1.03292,-2.063844 -4.566,-1.515392 -5.1211,0.65625 -2.96302,5.363415 -6.77027,10.176145 -10.13086,15.283205 -0.005,2.31696 2.45058,3.37081 3.73242,4.92969 1.44653,1.47861 2.84249,3.01507 4.42579,4.35156 3.59545,-0.57382 5.50791,-4.1045 8.44531,-5.85547 9.19778,-6.94435 18.9826,-13.1297 28.39648,-19.734375 1.39755,-0.900399 2.40471,-2.716904 1.60547,-4.335938 -0.60714,-1.530701 -2.52581,-2.374778 -4.01367,-1.583984 -2.66297,0.945914 -4.58591,3.155848 -7.07227,4.419922 2.24371,-3.965759 5.24499,-7.49498 7.25977,-11.580078 0.37207,-1.815241 -1.51385,-3.613852 -3.27344,-3.427735 z m -0.33594,2.560547 c 1.1572,-0.04776 1.13879,1.606331 0.37891,2.134766 -2.74029,3.740295 -5.50695,7.500786 -7.79687,11.53125 -0.42913,1.011192 0.0899,2.662061 1.41992,2.429687 2.46763,-0.313537 4.31595,-2.183205 6.38086,-3.388671 1.42417,-0.976322 2.78319,-2.332005 4.51172,-2.660157 0.99223,0.489557 0.39721,1.895011 -0.47071,2.1875 -9.74384,6.923289 -20.20651,12.868326 -29.39844,20.564456 -1.74199,1.32849 -3.28891,3.00385 -5.13671,4.13086 -1.63898,-0.38028 -2.16338,-2.26943 -3.54493,-3.08399 -1.10713,-1.0141 -2.21357,-2.03339 -3.08593,-3.24023 3.76431,-4.71301 6.77958,-9.9993 10.13086,-14.964846 0.88558,-0.136823 1.00085,0.974223 0.74023,1.576172 -0.41229,2.436143 -1.81709,5.043734 -0.65234,7.486324 1.00513,1.09609 2.50055,0.10315 3.28125,-0.74804 4.59446,-3.83758 8.90248,-8.019927 12.71289,-12.642581 3.38661,-3.901358 6.70018,-7.838769 10.52929,-11.3125 z m -101.51757,0.0625 c 1.526082,0.469126 2.201669,2.097389 3.441406,2.992188 6.515318,6.784833 12.113738,14.509186 19.527348,20.390623 0.8918,0.8552 2.09067,2.04301 3.42773,1.60352 1.55335,-1.29712 0.76123,-3.5475 0.41602,-5.20117 -0.40651,-1.528828 -0.85553,-3.25555 -0.61133,-4.812505 2.57151,2.15124 3.46176,5.560695 5.541006,8.109375 1.69455,2.56366 3.50694,5.04623 5.34571,7.50781 -1.86823,2.21775 -4.21681,4.07811 -6.15039,6.26563 -1.897096,-0.0407 -2.736196,-2.07476 -4.230466,-2.93164 -7.68459,-6.39004 -15.97163,-12.00146 -24.419924,-17.322268 -2.558825,-1.736507 -5.305369,-3.401462 -7.470704,-5.574219 -0.176351,-1.005663 1.486066,-1.547552 1.955079,-0.632812 3.068436,2.037176 5.958821,4.720235 9.595703,5.697265 1.275942,0.02469 2.020607,-1.589085 1.269531,-2.589844 -1.048923,-2.379871 -2.933036,-4.259819 -4.136719,-6.554687 -1.328158,-2.08125 -3.272582,-3.858644 -4.080078,-6.222656 -0.01893,-0.342031 0.189606,-0.74691 0.580078,-0.72461 z m 52.2207,31.908201 c -0.28924,-0.008 -0.57058,0.008 -0.79883,0.0234 -0.28392,-0.004 -0.56748,0.005 -0.85156,0.0137 -0.44216,-0.011 -0.88437,-0.0145 -1.32617,-0.006 -0.22721,-0.0361 -0.46391,0.0408 -0.66993,0.17188 -5.09288,0.67626 -9.94879,3.30889 -12.89062,7.58203 -3.78214,5.33735 -4.78298,12.39426 -2.91406,18.63281 1.24962,4.57177 4.05863,9.00368 8.53906,10.95117 2.06545,0.92182 4.3371,1.03647 6.45898,1.77539 1.11721,0.27315 2.36622,0.4992 3.55274,0.41016 3.20724,0.20524 6.42899,-1.20721 9.44726,-2.13868 3.97394,-1.52091 6.5022,-5.32442 7.75391,-9.23827 2.24452,-6.2727 1.97599,-13.63466 -1.70508,-19.32227 -2.52411,-4.1434 -6.69699,-7.31 -11.49609,-8.25 -0.62919,-0.14472 -1.26532,-0.24982 -1.9043,-0.33789 -0.31444,-0.1922 -0.76404,-0.25606 -1.19531,-0.26758 z m -1.31836,1.99805 c 1.2881,0.11966 2.58927,0.17732 3.82422,0.60937 4.19893,0.95579 8.04727,3.60634 10.25,7.36133 3.22478,5.07142 4.02187,11.85801 1.26953,17.25782 -0.94958,1.06099 -2.50245,0.37979 -3.20313,-0.60547 -3.44659,-3.11486 -6.91974,-6.21492 -10.52734,-9.14258 0.25391,-0.24866 0.51459,-0.49009 0.76367,-0.74414 0.27192,-1.08337 -1.11001,-1.49649 -1.85156,-0.96289 -0.19506,0.11792 -0.37987,0.24839 -0.56641,0.37695 -0.1359,-0.10665 -0.26793,-0.21816 -0.40429,-0.32422 -0.63903,-0.56234 -1.98882,-0.23782 -1.88867,0.66016 0.18356,0.35667 0.41075,0.67291 0.65429,0.97461 -1.25133,1.10493 -2.42368,2.30569 -3.79687,3.25 -2.83427,2.32643 -5.32918,5.15368 -8.41211,7.10742 -1.70917,0.0855 -2.0861,-1.90225 -2.45508,-3.15234 -2.39858,-8.25981 2.0706,-18.14675 10.10937,-21.31446 1.95132,-0.82291 4.11285,-1.00406 6.23438,-1.35156 z m -0.0332,17.03711 c 0.96553,0.76517 2.00074,1.4697 2.82226,2.37305 3.45144,2.9824 7.25174,5.62891 10.3125,9.01953 0.1647,1.73375 -1.70503,2.63396 -2.86133,3.51953 -2.93498,1.82423 -6.30133,2.41216 -9.60351,3.21484 -4.56283,-0.80762 -9.43659,-1.64828 -12.96289,-4.85742 -0.78634,-0.72083 -1.13984,-2.11364 -0.0586,-2.76758 3.95356,-3.67663 8.35405,-6.86293 12.35156,-10.50195 z m 13.58398,17.45507 c -0.0822,-0.007 -0.16291,-0.003 -0.23047,0.0449 -1.06335,0.52905 -0.35488,1.9614 0.42578,2.39257 6.54858,6.87205 12.52959,14.58594 15.99024,23.48439 1.22687,4.00225 0.83722,8.24058 0.59179,12.36328 -0.35675,3.12764 -1.10581,6.46152 -3.18359,8.9375 -2.2844,1.8968 -5.49027,1.16562 -8.12109,0.60742 -6.23224,-1.31894 -11.83309,-4.57233 -17.25,-7.83398 -1.38309,0.30087 -1.42005,2.51162 -0.0508,2.84961 6.84364,5.04841 15.21297,8.72795 23.86915,8.13867 1.96541,-0.19103 3.79075,-1.37222 4.6289,-3.1836 3.62029,-5.84344 3.76172,-13.1274 2.6543,-19.71679 -1.23018,-6.53479 -4.62879,-12.48527 -9.00781,-17.42384 -3.03819,-3.82866 -6.34126,-7.46741 -10.07422,-10.63281 -0.0756,2.8e-4 -0.16002,-0.02 -0.24219,-0.0273 z m -27.01367,0.01 c -2.3374,0.85782 -3.44646,3.32331 -5.29492,4.83008 -5.640646,6.14493 -11.473496,12.7434 -13.570306,21.03516 -1.71665,6.63786 -1.6458,13.95859 1.21289,20.27149 1.01779,2.06543 2.49085,4.56655 5.0664,4.70898 8.961976,0.87454 17.755326,-2.91396 24.675786,-8.37695 1.21792,-0.40917 0.79995,-2.29983 -0.39649,-2.375 -1.15946,-0.0265 -1.83247,1.17579 -2.85742,1.54102 -6.06376,3.75654 -12.93549,6.86578 -20.185546,6.70898 -2.87006,-0.57601 -4.27299,-3.62504 -4.75976,-6.23633 -1.24189,-5.03093 -1.26244,-10.31031 -0.35938,-15.36523 2.76722,-8.38728 8.36687,-15.45024 14.076166,-22.03517 1.208,-1.22593 2.54019,-2.44768 3.15821,-4.09961 -0.13549,-0.30679 -0.38698,-0.64963 -0.76563,-0.60742 z m -8.265616,1.55469 c -4.36309,0.78116 -8.19598,3.17602 -12.2461,4.84765 -7.956102,3.83163 -15.906286,7.79132 -23.228512,12.75001 -1.336191,1.08834 -3.090721,2.58151 -2.701172,4.50782 0.636425,2.2509 3.275372,3.16206 5.400391,2.77734 5.492376,-0.26667 10.456365,-2.92883 15.656253,-4.42969 2.10154,-0.70104 4.30397,-1.30062 6.125,-2.61914 0.32536,-1.21645 -1.26805,-2.00889 -2.17969,-1.30273 -7.074464,1.96263 -13.764181,5.41671 -21.082032,6.29687 -1.023768,-0.0374 -2.020913,-1.30223 -1.107422,-2.15039 1.706147,-2.16495 4.455009,-3.04813 6.730469,-4.45703 9.555165,-5.00618 19.230195,-9.85002 29.222655,-13.89845 0.896626,-0.39873 1.023466,-1.75215 0.0723,-2.16992 -0.20281,-0.10592 -0.43362,-0.1581 -0.66211,-0.15234 z m 43.310536,0.0137 c -1.40489,-0.0524 -1.51942,2.30409 -0.13476,2.42969 3.48246,1.46307 6.99417,2.85347 10.38085,4.53515 7.99814,3.75871 15.95916,7.64427 23.58008,12.12306 0.96367,0.65525 2.54138,1.78077 1.84571,3.09766 -1.29886,1.26767 -3.19029,0.28445 -4.70118,0.0664 -6.05361,-1.43633 -11.73319,-4.17589 -17.77148,-5.70117 -0.7295,-0.22564 -1.79007,-0.43923 -1.97461,0.54883 -0.22664,0.90316 0.61111,1.70147 1.47852,1.69336 6.65012,2.22305 13.15769,5.19988 20.16796,6.12304 2.05604,0.17199 4.70723,-0.4188 5.41993,-2.62695 0.58455,-2.00739 -1.26123,-3.59333 -2.66993,-4.6875 -4.54284,-3.57014 -9.94076,-5.78139 -14.92382,-8.63673 -6.51841,-3.4013 -13.10971,-6.80099 -20.16211,-8.95508 -0.17824,-0.009 -0.3573,0.003 -0.53516,-0.01 z m 13.92578,35.41407 c -1.58895,0.0933 -2.17355,2.46629 -0.875,3.33985 4.39354,6.30536 6.16669,14.7763 3.22852,21.99218 -3.75451,7.36841 -10.9194,12.40015 -18.5,15.16211 -5.35242,2.20743 -11.00017,3.59009 -16.63477,4.76758 -1.22455,0.64882 -0.44441,2.5797 0.84375,2.48633 2.08465,0.23187 4.1236,-0.49276 6.16992,-0.77149 5.37526,-1.16077 10.37985,-3.56713 15.53711,-5.33984 1.49063,-0.0279 2.37708,1.59408 1.99805,2.92383 -0.26952,4.21634 -2.55676,7.97058 -4.39062,11.68164 -2.47576,4.28171 -5.48948,8.40326 -9.3125,11.56836 -1.31179,0.0707 -1.47803,-1.64345 -2.15039,-2.4043 -2.95871,-5.1877 -4.82579,-10.86439 -7.23828,-16.31836 -1.06948,-0.76769 -2.46025,0.88536 -1.57227,1.82227 2.43938,6.83724 5.4537,13.52122 9.23047,19.71093 1.26076,1.03155 2.87063,-0.086 3.75195,-1.08398 5.05938,-4.83902 9.01035,-10.7475 12.14648,-16.97656 1.615,-3.62677 2.21059,-7.66953 1.83594,-11.61133 0.0944,-1.79666 1.48154,-3.12092 2.94531,-3.95508 4.31206,-3.37164 8.47447,-7.72232 9.41016,-13.33203 1.55682,-6.45068 0.35394,-13.43485 -2.91016,-19.14453 -0.85793,-1.58537 -1.6596,-3.42009 -3.15625,-4.47461 -0.11597,-0.0321 -0.23715,-0.0481 -0.35742,-0.043 z m -71.201166,0.0547 c -2.0359,0.87634 -2.38696,3.34733 -3.58789,4.97266 -2.927194,5.50635 -4.128932,12.01045 -2.769528,18.14453 0.965588,5.18063 4.185308,9.72463 8.392578,12.8164 1.28926,1.12768 2.92493,2.07589 3.78711,3.56836 0.77444,3.58291 -0.34367,7.49343 1.39453,10.88281 2.75801,7.51899 7.823026,13.95669 13.404296,19.59375 0.91398,0.88891 2.66369,1.46373 3.55859,0.25391 1.37847,-2.01568 2.18438,-4.32426 3.40039,-6.43164 2.27048,-4.56259 4.45707,-9.20857 5.79102,-14.14453 -0.40418,-1.21265 -2.42546,-0.88698 -2.42578,0.38476 -2.25951,6.06734 -4.49967,12.23062 -8.16407,17.61329 -1.20753,0.41854 -1.83479,-1.12034 -2.625,-1.74219 -5.677656,-5.7856 -9.970136,-13.05286 -11.763666,-20.98047 -0.28778,-1.45068 0.46918,-3.61112 2.27734,-3.27148 2.1254,0.39848 3.98876,1.62705 6.035156,2.29882 5.04541,1.99477 10.37528,3.74229 15.84961,3.69336 1.18822,-0.24814 1.50343,-2.28303 0.17188,-2.53711 -2.84517,-0.61088 -5.73378,-1.0453 -8.48829,-2.01562 -8.38557,-2.39009 -17.063396,-5.81533 -22.894526,-12.64063 -2.87747,-3.21776 -4.94061,-7.35251 -4.90429,-11.69531 -0.27445,-5.87757 1.89021,-11.78087 5.30273,-16.57227 0.4243,-1.0382 -0.67458,-2.34606 -1.74219,-2.1914 z"
         style="display:inline;opacity:1;fill:#4d4d4d;stroke:none;filter:url(#filter6030)" />
      <path
         inkscape:connector-curvature="0"
         d="m 116.92061,163.55821 c 0.6138,0 1.2275,0 1.8413,0 0.7401,0 1.4802,0 2.2202,0 0.5294,0 1.0587,0 1.5879,0 0.3969,0 0.7937,0 1.1905,0 0.6377,0.0609 1.1064,0.31281 1.25,1.07076 0.05,0.26334 -0.084,0.53734 -0.2008,0.77859 -0.1157,0.23913 -0.3967,0.37744 -0.6109,0.50572 -0.3338,0.18628 -0.6656,0.37518 -1.008,0.54573 -0.4478,0.23988 -0.8936,0.48296 -1.3346,0.73516 -0.4587,0.25321 -0.8785,0.56396 -1.3055,0.86491 -0.3484,0.22878 -0.6528,0.51371 -0.9726,0.77898 -0.353,0.27937 -0.6893,0.57844 -1.0177,0.88618 -0.3328,0.33545 -0.6929,0.64146 -1.072,0.92292 -0.1885,0.15778 -0.4142,0.26944 -0.6026,0.42653 -0.019,0.0161 0.047,-0.0222 0.062,-0.0426 0.097,-0.13578 0.18,-0.28115 0.27,-0.42172 -0.2362,-1.101 0.061,-0.8955 -0.6204,-1.32002 -0.083,-0.0515 -0.1453,-0.0178 -0.1192,-0.0466 0.016,-0.0178 0.045,-0.0171 0.068,-0.0226 0.075,-0.0179 0.1519,-0.0318 0.2278,-0.0478 0.5916,-0.15358 1.1817,-0.30982 1.7834,-0.41886 0.466,-0.10889 0.9349,-0.19881 1.4107,-0.25025 0.3549,-0.009 0.701,-0.0817 1.0528,-0.12426 0.419,-0.0461 0.8404,-0.0596 1.2615,-0.0666 0.2935,-0.0624 0.5922,-0.0991 0.8908,-0.12748 0.3476,-0.0285 0.6965,-0.0313 1.045,-0.0333 0.2332,-0.008 0.5013,0.0205 0.6974,-0.0241 1.5388,-0.30236 1.9664,1.87385 0.4275,2.1762 l 0,0 c -0.369,0.0687 -0.7381,0.0746 -1.1124,0.0656 -0.2844,10e-4 -0.5691,0.003 -0.8528,0.0239 -0.3552,0.0317 -0.7035,0.10833 -1.0591,0.13666 -0.3461,0.006 -0.6926,0.0152 -1.0371,0.0515 -0.3608,0.0415 -0.7174,0.11838 -1.0814,0.12745 -0.4236,0.0428 -0.8379,0.13762 -1.2535,0.228 -0.5808,0.10131 -1.1462,0.26763 -1.7187,0.40632 -0.3825,0.0798 -0.9287,0.222 -1.3054,0.0589 -0.1906,-0.0826 -0.4337,-0.1352 -0.5376,-0.3151 -0.1927,-0.33368 -0.1936,-0.74593 -0.2904,-1.11889 0.1,-0.17324 0.1832,-0.35706 0.2995,-0.5197 0.189,-0.26422 0.5594,-0.3691 0.7862,-0.59228 0.3124,-0.22047 0.5915,-0.48392 0.8642,-0.75071 0.3623,-0.33902 0.7328,-0.66914 1.1217,-0.97768 0.3655,-0.29951 0.7114,-0.62449 1.1092,-0.88308 0.4842,-0.33912 0.9608,-0.68913 1.4797,-0.97569 0.4785,-0.2736 0.9622,-0.53776 1.449,-0.79617 0.3205,-0.15859 0.6287,-0.33851 0.9415,-0.51129 -0.064,0.0713 -0.1879,0.20786 -0.2013,0.2463 -0.076,0.2181 -0.193,0.45505 -0.1367,0.67891 0.1198,0.47567 0.4593,0.89647 0.9528,0.88938 -0.3968,0 -0.7936,0 -1.1905,0 -0.5292,0 -1.0585,0 -1.5879,0 -0.74,0 -1.4801,0 -2.2202,0 -0.6138,0 -1.2275,0 -1.8413,0 -1.5682,0 -1.5682,-2.21782 0,-2.21782 z"
         id="path10784-8"
         style="opacity:1;fill:#4d4d4d;stroke:none;stroke-opacity:1" />
    </g>
  </g>
</svg>
