<svg xmlns="http://www.w3.org/2000/svg" width="210mm" height="297mm" viewBox="0 0 744.09448819 1052.3622047">
    <defs>
        <filter id="a" color-interpolation-filters="sRGB">
            <feBlend mode="darken" in2="BackgroundImage"/>
        </filter>
    </defs>
    <filter id="dropshadow" height="130%">
  <feGaussianBlur in="SourceAlpha" stdDeviation="3"/> <!-- stdDeviation is how much to blur -->
  <feOffset dx="2" dy="2" result="offsetblur"/> <!-- how much to offset -->
  <feMerge> 
    <feMergeNode/> <!-- this contains the offset blurred image -->
    <feMergeNode in="SourceGraphic"/> <!-- this contains the element that the filter is applied to -->
  </feMerge>
    </filter>
    <g fill="white" id="body">
    <path d="M301.794 368.285c-.038-.003-.075-.001-.106.02-.49.244-.164.902.195 1.1 3.012 3.16 5.762 6.708 7.353 10.8.564 1.84.385 3.79.272 5.685-.164 1.438-.508 2.971-1.464 4.11-1.05.872-2.524.536-3.734.28-2.866-.607-5.441-2.103-7.932-3.603-.636.138-.653 1.155-.024 1.31 3.147 2.322 6.996 4.014 10.976 3.743.904-.088 1.744-.631 2.129-1.464 1.665-2.687 1.73-6.037 1.22-9.067-.565-3.005-2.128-5.741-4.142-8.012-1.397-1.76-2.916-3.434-4.632-4.89-.035 0-.074-.009-.112-.012zM289.372 368.29c-1.075.394-1.585 1.528-2.435 2.22-2.594 2.826-5.276 5.86-6.24 9.673-.79 3.053-.757 6.42.557 9.322.468.95 1.146 2.1 2.33 2.165 4.121.403 8.165-1.34 11.347-3.852.56-.188.368-1.057-.182-1.092-.534-.012-.843.54-1.314.709-2.789 1.727-5.949 3.157-9.283 3.085-1.32-.265-1.964-1.667-2.188-2.868-.571-2.313-.58-4.74-.165-7.065 1.272-3.857 3.847-7.105 6.472-10.133.556-.564 1.168-1.126 1.453-1.885-.063-.141-.178-.299-.352-.28zM285.57 369.004c-2.006.36-3.768 1.46-5.63 2.23-3.66 1.762-7.315 3.582-10.682 5.863-.614.5-1.421 1.187-1.242 2.072.292 1.035 1.506 1.454 2.483 1.278 2.526-.123 4.808-1.347 7.2-2.037.966-.323 1.979-.598 2.816-1.205.15-.56-.583-.924-1.002-.599-3.253.903-6.33 2.491-9.695 2.896-.47-.017-.929-.6-.509-.99.785-.995 2.049-1.4 3.095-2.049 4.394-2.302 8.843-4.53 13.438-6.39.412-.184.47-.806.033-.999a.628.628 0 0 0-.304-.07zM305.487 369.01c-.646-.023-.7 1.06-.062 1.118 1.601.673 3.216 1.312 4.773 2.085 3.678 1.729 7.339 3.516 10.843 5.575.443.301 1.169.819.849 1.425-.597.582-1.467.13-2.162.03-2.783-.66-5.395-1.92-8.172-2.622-.335-.103-.823-.202-.908.253-.104.415.281.782.68.778 3.058 1.023 6.05 2.392 9.274 2.816.946.08 2.165-.192 2.492-1.208.27-.923-.58-1.652-1.227-2.155-2.09-1.642-4.572-2.659-6.863-3.972-2.997-1.564-6.028-3.127-9.271-4.118-.082-.004-.165.001-.246-.005z" transform="matrix(10.92027 0 0 10.92027 -2850.496 -3573.882)" filter="url(#a)"/>
    <path d="M311.89 385.296c-.73.042-1 1.134-.402 1.535 2.02 2.9 2.836 6.795 1.485 10.113-1.727 3.389-5.022 5.702-8.508 6.972-2.46 1.016-5.058 1.651-7.649 2.193-.563.298-.204 1.186.388 1.143.959.107 1.896-.226 2.837-.355 2.472-.533 4.773-1.64 7.145-2.455.685-.013 1.093.733.919 1.344-.124 1.94-1.176 3.666-2.02 5.372-1.138 1.969-2.524 3.864-4.282 5.32-.603.032-.68-.756-.988-1.106-1.361-2.385-2.22-4.996-3.329-7.504-.492-.353-1.131.407-.723.838 1.122 3.144 2.508 6.218 4.245 9.064.58.474 1.32-.04 1.725-.498 2.326-2.226 4.143-4.943 5.585-7.807.743-1.668 1.017-3.527.845-5.34.043-.825.68-1.434 1.354-1.818 1.983-1.55 3.897-3.551 4.327-6.13.716-2.967.163-6.179-1.338-8.804-.395-.73-.763-1.573-1.451-2.058a.534.534 0 0 0-.165-.02zM279.149 385.32c-.936.404-1.098 1.54-1.65 2.287-1.346 2.532-1.898 5.523-1.273 8.344.444 2.382 1.924 4.472 3.859 5.893.593.519 1.345.955 1.741 1.641.356 1.648-.158 3.446.642 5.005 1.268 3.457 3.597 6.418 6.163 9.01.42.409 1.225.673 1.637.117.634-.927 1.004-1.989 1.563-2.958 1.045-2.098 2.05-4.235 2.663-6.504-.185-.558-1.115-.408-1.115.177-1.04 2.79-2.07 5.624-3.754 8.099-.555.192-.844-.515-1.207-.801-2.611-2.66-4.585-6.002-5.41-9.648-.132-.667.216-1.66 1.047-1.504.978.183 1.835.748 2.776 1.057 2.32.917 4.77 1.72 7.288 1.698.546-.114.691-1.05.079-1.166-1.308-.281-2.637-.481-3.903-.927-3.856-1.1-7.847-2.674-10.528-5.813-1.323-1.48-2.272-3.381-2.255-5.378-.126-2.703.869-5.417 2.438-7.62.195-.478-.31-1.08-.801-1.008z" transform="matrix(10.92027 0 0 10.92027 -2850.496 -3573.882)" filter="url(#a)"/>
    <path d="M356.66 763.116h34.348c3.202.306 5.556 1.57 6.277 5.377.251 1.322-.422 2.698-1.008 3.91-.581 1.2-1.992 1.895-3.068 2.539-1.676.936-3.342 1.884-5.061 2.74a276.064 276.064 0 0 0-6.702 3.692c-2.304 1.272-4.412 2.832-6.556 4.343-1.75 1.15-3.278 2.58-4.884 3.912-1.773 1.403-3.461 2.905-5.11 4.45a47.163 47.163 0 0 1-5.384 4.635c-.946.792-2.08 1.353-3.026 2.142-.098.076.236-.112.312-.215.487-.681.904-1.411 1.355-2.117-1.186-5.53.307-4.497-3.115-6.629-.417-.259-.73-.087-.598-.234.076-.087.226-.087.341-.113.377-.088.764-.16 1.145-.24 2.97-.772 5.933-1.556 8.955-2.104 2.34-.547 4.695-.998 7.084-1.257 1.782-.043 3.52-.41 5.287-.623 2.104-.232 4.22-.3 6.334-.334 1.474-.314 2.974-.498 4.474-.64 1.745-.143 3.497-.157 5.247-.167 1.171-.044 2.518.098 3.502-.121 7.728-1.519 9.875 9.41 2.147 10.928-1.853.345-3.707.374-5.586.33-1.428.005-2.858.011-4.282.12-1.784.159-3.533.543-5.319.685-1.738.033-3.478.077-5.208.26-1.812.208-3.602.593-5.43.639-2.127.215-4.208.691-6.295 1.145-2.916.509-5.755 1.344-8.63 2.04-1.921.401-4.664 1.115-6.555.296-.957-.415-2.178-.679-2.7-1.582-.968-1.676-.972-3.746-1.458-5.619.502-.87.92-1.793 1.504-2.61.949-1.326 2.809-1.853 3.948-2.974 1.568-1.107 2.97-2.43 4.34-3.77 1.819-1.702 3.68-3.36 5.632-4.909 1.835-1.504 3.572-3.136 5.57-4.434 2.431-1.703 4.825-3.46 7.43-4.9a264.18 264.18 0 0 1 7.277-3.998c1.61-.796 3.157-1.7 4.728-2.567-.322.358-.944 1.044-1.012 1.236-.38 1.096-.97 2.286-.687 3.41.602 2.388 2.307 4.501 4.785 4.466h-34.347c-7.875 0-7.875-11.137 0-11.137z"/>
    
    </g>
    <g fill="white" id="head">
        <path d="M271.9 335.598c-.914.093-1.679 1.303-1.029 2.08.981 1.664 2.162 3.207 3.133 4.875-1.321-.682-2.367-2.01-3.916-2.192-1.195.013-1.806 1.76-.873 2.518 2.609 2.063 5.51 3.728 8.219 5.658 2.817 1.91 5.555 3.945 8.15 6.147.491.344 1.249.29 1.578-.254 1.024-1.116 2.274-2.057 3.127-3.309.14-1.012-.89-1.602-1.338-2.371-1.417-1.832-2.473-3.924-3.851-5.773-.761-.538-2.102.06-1.963 1.054-.003 1.1.515 2.174.7 3.196-3.86-3.421-7.041-7.519-10.753-11.084-.35-.257-.742-.507-1.184-.545zm.256 1.234c.702.216 1.012.966 1.582 1.377 2.996 3.12 5.57 6.67 8.979 9.375.41.393.961.94 1.576.738.714-.596.35-1.632.191-2.392-.187-.703-.393-1.497-.28-2.213 1.182.989 1.592 2.558 2.548 3.73a73.653 73.653 0 0 0 2.457 3.451c-.86 1.02-1.939 1.875-2.828 2.881-.873-.018-1.258-.953-1.945-1.347-3.534-2.939-7.344-5.518-11.229-7.965-1.177-.799-2.44-1.566-3.436-2.565-.08-.462.683-.71.899-.289 1.41.937 2.742 2.17 4.414 2.62.587.01.927-.732.582-1.192-.482-1.094-1.347-1.958-1.9-3.014-.611-.957-1.506-1.774-1.877-2.861-.01-.157.088-.344.267-.334zM318.992 335.627c-2.086.95-3.212 3.084-4.838 4.59-2.23 2.41-4.454 4.834-6.883 7.045.233-1.258 1.033-2.568.567-3.875-.475-.95-2.098-.696-2.354.302-1.362 2.467-3.112 4.68-4.658 7.028-.002 1.065 1.126 1.55 1.715 2.267.665.68 1.307 1.386 2.035 2 1.653-.263 2.534-1.888 3.885-2.693 4.23-3.193 8.728-6.037 13.057-9.074.642-.414 1.105-1.25.738-1.994-.28-.704-1.162-1.092-1.846-.729-1.224.435-2.108 1.452-3.252 2.033 1.032-1.823 2.412-3.445 3.338-5.324.171-.835-.695-1.662-1.504-1.576zm-.154 1.178c.532-.022.523.737.174.98-1.26 1.72-2.533 3.45-3.586 5.303-.198.465.042 1.224.654 1.117 1.135-.144 1.984-1.004 2.934-1.559.655-.448 1.279-1.071 2.074-1.222.456.225.182.871-.217 1.006-4.48 3.183-9.29 5.918-13.517 9.457-.802.61-1.514 1.38-2.364 1.898-.753-.175-.993-1.043-1.629-1.418-.509-.466-1.018-.935-1.42-1.49 1.731-2.167 3.118-4.598 4.659-6.88.407-.064.461.447.341.724-.19 1.12-.836 2.32-.3 3.443.462.504 1.15.046 1.51-.346 2.112-1.764 4.093-3.686 5.845-5.812 1.557-1.794 3.081-3.604 4.842-5.201zM296.168 351.504v.002a3.815 3.815 0 0 0-.367.01c-.13-.002-.26.002-.39.006a13.844 13.844 0 0 0-.612-.002.449.449 0 0 0-.307.078c-2.342.311-4.575 1.521-5.928 3.486-1.739 2.455-2.199 5.7-1.34 8.569.575 2.102 1.866 4.14 3.926 5.035.95.424 1.995.476 2.971.816.514.126 1.087.23 1.633.19 1.475.094 2.958-.554 4.346-.983 1.827-.7 2.988-2.45 3.564-4.25 1.032-2.884.91-6.27-.783-8.884-1.16-1.906-3.08-3.361-5.287-3.793a9.948 9.948 0 0 0-.875-.157c-.145-.088-.353-.117-.551-.123zm-.605.92c.592.055 1.19.082 1.757.281 1.931.44 3.702 1.658 4.715 3.385 1.483 2.332 1.848 5.452.582 7.935-.436.488-1.15.174-1.472-.279-1.585-1.432-3.181-2.857-4.84-4.203.116-.114.237-.225.351-.342.125-.498-.51-.689-.851-.443-.09.054-.176.115-.262.174-.063-.05-.123-.102-.186-.15-.293-.26-.915-.109-.869.304.085.164.19.308.301.447-.575.508-1.113 1.06-1.744 1.494-1.303 1.07-2.452 2.371-3.87 3.27-.785.04-.958-.875-1.128-1.45-1.103-3.798.952-8.345 4.648-9.802.898-.378 1.892-.461 2.867-.621zm-.016 7.834c.444.352.92.676 1.299 1.092 1.587 1.371 3.334 2.589 4.742 4.148.076.797-.785 1.21-1.317 1.617-1.35.84-2.897 1.11-4.416 1.479-2.098-.372-4.339-.759-5.96-2.235-.362-.331-.525-.97-.028-1.271 1.818-1.69 3.842-3.157 5.68-4.83z" transform="matrix(10.92027 0 0 10.92027 -2850.496 -3573.882)" filter="url(#a)"/>
    </g>
</svg>
