<svg xmlns="http://www.w3.org/2000/svg" viewBox="0 0 744.09448819 1052.3622047" height="297mm" width="210mm"><defs><filter id="a" color-interpolation-filters="sRGB"><feBlend in2="BackgroundImage" mode="darken"/></filter></defs><path transform="translate(73.203 124.185) scale(2.58916)" d="M69.539 29.7c-1.989.204-3.651 2.836-2.238 4.526 2.134 3.62 4.702 6.972 6.812 10.6-2.873-1.484-5.147-4.373-8.516-4.766-2.597.028-3.928 3.83-1.9 5.476 5.673 4.486 11.986 8.108 17.877 12.305 6.127 4.153 12.077 8.576 17.72 13.363 1.069.749 2.716.633 3.432-.549 2.226-2.426 4.949-4.474 6.803-7.197.304-2.2-1.938-3.481-2.91-5.154-3.083-3.985-5.38-8.537-8.377-12.559-1.654-1.17-4.567.135-4.266 2.297-.006 2.391 1.12 4.723 1.524 6.945-8.396-7.439-15.317-16.349-23.389-24.103-.76-.558-1.613-1.101-2.572-1.184zm102.408.063c-4.537 2.067-6.984 6.71-10.52 9.984-4.848 5.243-9.685 10.512-14.966 15.32.505-2.736 2.247-5.586 1.232-8.427-1.033-2.064-4.566-1.516-5.12.656-2.964 5.363-6.771 10.176-10.132 15.283-.005 2.317 2.45 3.37 3.733 4.93 1.446 1.478 2.842 3.015 4.425 4.351 3.596-.573 5.508-4.104 8.446-5.855 9.198-6.944 18.982-13.13 28.396-19.735 1.398-.9 2.405-2.716 1.606-4.335-.607-1.531-2.526-2.375-4.014-1.584-2.663.945-4.586 3.155-7.072 4.42 2.243-3.966 5.245-7.495 7.26-11.58.372-1.816-1.514-3.614-3.274-3.428zm-.336 2.56c1.157-.048 1.139 1.607.379 2.135-2.74 3.74-5.507 7.5-7.797 11.531-.429 1.011.09 2.662 1.42 2.43 2.468-.314 4.316-2.183 6.38-3.389 1.425-.976 2.784-2.332 4.513-2.66.992.49.397 1.895-.471 2.188-9.744 6.923-20.207 12.868-29.398 20.564-1.742 1.329-3.29 3.004-5.137 4.13-1.64-.38-2.164-2.269-3.545-3.083-1.107-1.014-2.214-2.033-3.086-3.24 3.764-4.713 6.78-10 10.13-14.965.886-.137 1.002.974.741 1.576-.412 2.436-1.817 5.044-.652 7.486 1.005 1.096 2.5.103 3.281-.748 4.594-3.837 8.902-8.02 12.713-12.642 3.386-3.902 6.7-7.84 10.53-11.313zm-101.517.063c1.526.469 2.201 2.097 3.441 2.992 6.515 6.785 12.114 14.51 19.527 20.39.892.856 2.091 2.044 3.428 1.604 1.553-1.297.761-3.547.416-5.201-.406-1.529-.855-3.256-.611-4.813 2.571 2.152 3.461 5.561 5.54 8.11 1.695 2.563 3.508 5.046 5.346 7.508-1.868 2.217-4.216 4.078-6.15 6.265-1.897-.04-2.736-2.075-4.23-2.931-7.685-6.39-15.972-12.002-24.42-17.323-2.56-1.736-5.306-3.401-7.471-5.574-.176-1.006 1.486-1.547 1.955-.633 3.068 2.037 5.959 4.72 9.596 5.698 1.276.024 2.02-1.59 1.27-2.59-1.05-2.38-2.934-4.26-4.137-6.555-1.329-2.081-3.273-3.859-4.08-6.223-.02-.342.19-.747.58-.724zm48.597 32.018c-5.093.676-9.972 3.402-12.914 7.675-3.782 5.337-4.783 12.394-2.914 18.633 1.25 4.572 4.124 8.708 8.605 10.655 3.218 1.338 6.578 2.168 10.012 2.284 3.137.02 6.757-1.157 9.611-2.352 3.908-1.981 6.272-4.914 7.524-8.827 2.245-6.273 1.976-13.635-1.705-19.323-2.524-4.143-6.697-7.31-11.496-8.25-3.251-.591-3.976-.76-6.723-.495zm7.61 2.823c4.198.956 6.566 3.28 8.77 7.036 3.224 5.071 4.021 11.858 1.269 17.257-.95 1.061-2.503.38-3.203-.605-3.447-3.115-6.92-6.215-10.528-9.143.254-.248.515-.49.764-.744.272-1.083-1.11-1.496-1.852-.963-.195.118-.38.249-.566.377-.136-.106-.268-.218-.404-.324-.64-.562-1.99-.238-1.89.66.184.357.412.673.655.975-1.251 1.105-2.423 2.306-3.797 3.25-2.834 2.326-5.329 5.154-8.412 7.107-1.709.086-2.086-1.902-2.455-3.152-2.398-8.26 2.07-18.147 10.11-21.314 3.843-1.595 7.58-1.449 11.538-.417zm-5.338 16.102c.965.765 2 1.47 2.822 2.373 3.451 2.983 7.252 5.629 10.312 9.02.165 1.733-1.705 2.634-2.86 3.52-2.936 1.823-7.953 3.109-9.674 3.098-1.494.076-9.367-1.532-12.893-4.741-.787-.721-1.14-2.114-.059-2.768 3.954-3.677 8.354-6.863 12.352-10.502zm13.584 17.455c-.083-.007-.163-.003-.23.045-1.064.53-.356 1.961.425 2.393 6.549 6.872 12.53 14.586 15.99 23.484 1.227 4.002.837 8.24.592 12.363-.357 3.128-1.106 6.462-3.184 8.938-2.284 1.897-5.49 1.165-8.12.607-6.233-1.319-11.834-4.572-17.25-7.834-1.384.301-1.42 2.512-.051 2.85 6.843 5.048 15.213 8.728 23.869 8.139 1.965-.192 3.79-1.373 4.629-3.184 3.62-5.844 3.761-13.127 2.654-19.717-1.23-6.535-4.629-12.485-9.008-17.424-3.038-3.828-6.341-7.467-10.074-10.633-.076 0-.16-.02-.242-.027zm-27.014.01c-2.337.858-3.446 3.323-5.295 4.83-5.64 6.145-11.473 12.744-13.57 21.035-1.717 6.638-1.646 13.959 1.213 20.272 1.017 2.065 2.49 4.566 5.066 4.709 8.962.874 17.755-2.914 24.676-8.377 1.218-.41.8-2.3-.397-2.375-1.16-.027-1.832 1.176-2.857 1.54-6.064 3.757-12.936 6.867-20.186 6.71-2.87-.576-4.273-3.625-4.76-6.236-1.241-5.031-1.262-10.31-.359-15.366 2.768-8.387 8.367-15.45 14.076-22.035 1.208-1.226 2.54-2.447 3.159-4.1-.136-.306-.387-.65-.766-.607zm-8.266 1.555c-4.363.781-8.196 3.176-12.246 4.847-7.956 3.832-15.906 7.792-23.228 12.75-1.336 1.089-3.09 2.582-2.701 4.508.636 2.251 3.275 3.162 5.4 2.778 5.492-.267 10.456-2.93 15.656-4.43 2.102-.701 4.304-1.3 6.125-2.62.326-1.216-1.268-2.008-2.18-1.302-7.074 1.963-13.764 5.417-21.081 6.297-1.024-.037-2.021-1.302-1.108-2.15 1.706-2.165 4.455-3.049 6.73-4.457 9.556-5.007 19.23-9.85 29.223-13.899.897-.399 1.024-1.752.073-2.17a1.364 1.364 0 0 0-.663-.152zm43.31.014c-1.404-.053-1.518 2.304-.134 2.43 3.483 1.462 6.994 2.853 10.381 4.534 7.998 3.76 15.96 7.645 23.58 12.123.964.656 2.542 1.781 1.846 3.098-1.299 1.268-3.19.285-4.701.067-6.054-1.437-11.734-4.176-17.772-5.702-.73-.225-1.79-.439-1.974.55-.227.902.61 1.7 1.478 1.693 6.65 2.223 13.158 5.2 20.168 6.123 2.056.172 4.707-.42 5.42-2.627.585-2.008-1.261-3.594-2.67-4.688-4.543-3.57-9.94-5.781-14.924-8.637-6.518-3.4-13.11-6.8-20.162-8.955-.178-.009-.357.003-.535-.01zm13.927 35.414c-1.59.093-2.174 2.466-.875 3.34 4.393 6.305 6.166 14.776 3.228 21.992-3.754 7.368-10.92 12.4-18.5 15.162-5.352 2.207-11 3.59-16.635 4.767-1.224.65-.444 2.58.844 2.487 2.085.232 4.124-.493 6.17-.772 5.375-1.16 10.38-3.567 15.537-5.34 1.49-.028 2.377 1.594 1.998 2.924-.27 4.217-2.556 7.97-4.39 11.682-2.476 4.282-5.49 8.403-9.313 11.568-1.312.07-1.478-1.643-2.15-2.404-2.959-5.188-4.826-10.865-7.238-16.318-1.07-.768-2.46.885-1.573 1.822 2.44 6.837 5.454 13.521 9.23 19.71 1.261 1.032 2.871-.085 3.753-1.083 5.059-4.84 9.01-10.748 12.146-16.977 1.615-3.627 2.21-7.67 1.836-11.611.094-1.797 1.482-3.121 2.945-3.955 4.312-3.372 8.475-7.723 9.41-13.332 1.557-6.451.354-13.435-2.91-19.145-.858-1.585-1.66-3.42-3.156-4.474a1.16 1.16 0 0 0-.357-.043zm-71.201.054c-2.036.877-2.387 3.348-3.588 4.973-2.928 5.506-4.13 12.01-2.77 18.144.966 5.181 4.185 9.725 8.393 12.817 1.289 1.128 2.925 2.076 3.787 3.568.774 3.583-.344 7.494 1.394 10.883 2.758 7.52 7.823 13.957 13.405 19.594.914.889 2.663 1.464 3.558.254 1.379-2.016 2.185-4.325 3.4-6.432 2.271-4.563 4.458-9.208 5.792-14.144-.405-1.213-2.426-.887-2.426.384-2.26 6.068-4.5 12.23-8.164 17.614-1.208.418-1.835-1.12-2.625-1.743-5.678-5.785-9.97-13.052-11.764-20.98-.288-1.45.47-3.611 2.277-3.272 2.126.399 3.99 1.628 6.036 2.3 5.045 1.994 10.375 3.742 15.85 3.693 1.187-.248 1.503-2.283.171-2.537-2.845-.611-5.734-1.046-8.488-2.016-8.386-2.39-17.064-5.815-22.895-12.64-2.877-3.218-4.94-7.353-4.904-11.696-.274-5.878 1.89-11.78 5.303-16.572.424-1.038-.675-2.346-1.742-2.192z" filter="url(#a)"/><path d="M377.743 541.81H388.4c.994.128 1.724.658 1.948 2.252.078.554-.131 1.13-.313 1.637-.18.503-.618.794-.952 1.063-.52.392-1.037.79-1.57 1.148a82.584 82.584 0 0 0-2.08 1.546c-.715.532-1.37 1.185-2.035 1.818-.543.481-1.017 1.08-1.515 1.638a29.42 29.42 0 0 0-1.586 1.863 16.997 16.997 0 0 1-1.67 1.941c-.294.332-.646.567-.94.897-.029.034.074-.047.097-.09.151-.285.28-.59.42-.886-.367-2.315.096-1.883-.966-2.776-.13-.108-.226-.037-.186-.098.025-.037.07-.036.106-.047.117-.038.237-.067.355-.101.922-.323 1.842-.651 2.78-.88a14.091 14.091 0 0 1 2.198-.527c.553-.019 1.092-.172 1.64-.261.653-.097 1.31-.125 1.966-.14a9.3 9.3 0 0 1 1.388-.268c.541-.06 1.085-.066 1.628-.07.364-.017.781.043 1.087-.051 2.398-.636 3.064 3.94.666 4.576-.575.144-1.15.157-1.733.138a13.94 13.94 0 0 0-1.33.05c-.553.067-1.095.228-1.65.287-.539.013-1.079.032-1.616.109-.562.087-1.117.249-1.685.268-.66.09-1.305.29-1.953.48-.905.212-1.786.562-2.678.853-.596.168-1.447.467-2.034.124-.297-.173-.676-.284-.838-.662-.3-.702-.302-1.569-.452-2.353.155-.364.285-.75.466-1.093.295-.555.872-.776 1.225-1.245.487-.464.922-1.018 1.347-1.578a33.213 33.213 0 0 1 1.748-2.056c.57-.63 1.108-1.313 1.728-1.857.755-.713 1.497-1.449 2.306-2.052.746-.575 1.5-1.13 2.258-1.674.5-.333.98-.711 1.467-1.075-.1.15-.293.437-.314.518-.118.459-.3.957-.213 1.428.187 1 .716 1.885 1.485 1.87h-10.659c-2.443 0-2.443-4.664 0-4.664z"/></svg>