<?xml version="1.0" encoding="UTF-8" standalone="no"?>
<!-- Created with Inkscape (http://www.inkscape.org/) -->

<svg
   xmlns:dc="http://purl.org/dc/elements/1.1/"
   xmlns:cc="http://creativecommons.org/ns#"
   xmlns:rdf="http://www.w3.org/1999/02/22-rdf-syntax-ns#"
   xmlns:svg="http://www.w3.org/2000/svg"
   xmlns="http://www.w3.org/2000/svg"
   xmlns:sodipodi="http://sodipodi.sourceforge.net/DTD/sodipodi-0.dtd"
   xmlns:inkscape="http://www.inkscape.org/namespaces/inkscape"
   width="44.778572mm"
   height="29.258934mm"
   viewBox="0 0 158.66423 103.67339"
   id="svg6432"
   version="1.1"
   inkscape:version="0.91 r13725"
   sodipodi:docname="hierofania.svg">
  <defs
     id="defs6434">
    <filter
       inkscape:collect="always"
       style="color-interpolation-filters:sRGB"
       id="filter6030">
      <feBlend
         inkscape:collect="always"
         mode="darken"
         in2="BackgroundImage"
         id="feBlend6032" />
    </filter>
  </defs>
  <sodipodi:namedview
     id="base"
     pagecolor="#ffffff"
     bordercolor="#666666"
     borderopacity="1.0"
     inkscape:pageopacity="0.0"
     inkscape:pageshadow="2"
     inkscape:zoom="0.5"
     inkscape:cx="282.41452"
     inkscape:cy="120.53249"
     inkscape:document-units="px"
     inkscape:current-layer="layer3"
     showgrid="false"
     inkscape:window-width="1366"
     inkscape:window-height="744"
     inkscape:window-x="0"
     inkscape:window-y="24"
     inkscape:window-maximized="1"
     fit-margin-top="0"
     fit-margin-left="0"
     fit-margin-right="0"
     fit-margin-bottom="0" />
  <metadata
     id="metadata6437">
    <rdf:RDF>
      <cc:Work
         rdf:about="">
        <dc:format>image/svg+xml</dc:format>
        <dc:type
           rdf:resource="http://purl.org/dc/dcmitype/StillImage" />
        <dc:title></dc:title>
      </cc:Work>
    </rdf:RDF>
  </metadata>
  <g
     inkscape:groupmode="layer"
     id="layer2"
     inkscape:label="Head"
     style="display:inline"
     transform="translate(-60.926611,-379.57587)">
    <g
       inkscape:groupmode="layer"
       id="layer3"
       inkscape:label="Horns"
       style="display:inline">
      <path
         style="display:inline;opacity:1;fill:#000000;stroke:none;filter:url(#filter6030)"
         d="m 271.90039,335.59766 c -0.91435,0.0936 -1.67901,1.30326 -1.0293,2.08007 0.9814,1.66473 2.1624,3.20695 3.13282,4.875 -1.32135,-0.68193 -2.36691,-2.01032 -3.91602,-2.1914 -1.19458,0.013 -1.80558,1.76049 -0.87305,2.51758 2.60885,2.06282 5.50973,3.72819 8.21875,5.6582 2.81737,1.90981 5.55495,3.94509 8.15039,6.14648 0.49123,0.34427 1.24859,0.28961 1.57813,-0.2539 1.0234,-1.11563 2.27433,-2.05665 3.12695,-3.3086 0.13974,-1.01185 -0.89098,-1.60183 -1.33789,-2.37109 -1.41766,-1.83245 -2.47303,-3.92402 -3.85156,-5.77344 -0.76064,-0.53765 -2.10166,0.0606 -1.96289,1.05469 -0.003,1.09972 0.51576,2.17327 0.70117,3.19531 -3.86062,-3.42079 -7.042,-7.51809 -10.75391,-11.08398 -0.3497,-0.25648 -0.7424,-0.50701 -1.18359,-0.54492 z m 0.25586,1.23437 c 0.70176,0.21572 1.01195,0.96548 1.58203,1.37695 2.99602,3.11994 5.56943,6.67047 8.97852,9.375 0.41008,0.39326 0.96133,0.94039 1.57617,0.73829 0.71429,-0.59646 0.35014,-1.63215 0.19141,-2.39258 -0.18694,-0.70302 -0.39355,-1.49694 -0.28126,-2.21289 1.18248,0.98923 1.59271,2.55848 2.54883,3.73047 0.77923,1.17888 1.61149,2.31923 2.45703,3.45117 -0.85909,1.01981 -1.93898,1.87494 -2.82812,2.88086 -0.87237,-0.0187 -1.25818,-0.95363 -1.94531,-1.34766 -3.53369,-2.93841 -7.34364,-5.51811 -11.22852,-7.96484 -1.17665,-0.79852 -2.43984,-1.56533 -3.43555,-2.56446 -0.0811,-0.46244 0.68277,-0.70969 0.89844,-0.28906 1.41099,0.93678 2.74167,2.16986 4.41406,2.61914 0.58673,0.0113 0.92742,-0.73121 0.58204,-1.1914 -0.48234,-1.09436 -1.34689,-1.95841 -1.9004,-3.01368 -0.61074,-0.95705 -1.50563,-1.77425 -1.87695,-2.86132 -0.009,-0.15728 0.088,-0.34425 0.26758,-0.33399 z"
         id="path7020"
         inkscape:connector-curvature="0"
         transform="matrix(2.7386672,0,0,2.7386672,-669.22158,-534.22826)" />
      <path
         style="display:inline;opacity:1;fill:#000000;stroke:none;filter:url(#filter6030)"
         d="m 318.99219,335.62695 c -2.08648,0.95077 -3.21214,3.08453 -4.83789,4.58985 -2.22974,2.41086 -4.45412,4.83382 -6.88282,7.04492 0.23248,-1.25817 1.03302,-2.56822 0.56641,-3.875 -0.47498,-0.94904 -2.09825,-0.69588 -2.35351,0.30273 -1.36253,2.46632 -3.11287,4.67892 -4.65821,7.02735 -0.002,1.06544 1.1254,1.55073 1.71485,2.26758 0.66517,0.67991 1.30708,1.38541 2.03515,2 1.65333,-0.26387 2.53403,-1.88819 3.88477,-2.69336 4.22952,-3.1933 8.72775,-6.03712 13.05664,-9.07422 0.64265,-0.41405 1.1058,-1.24964 0.73828,-1.99414 -0.27919,-0.70388 -1.16152,-1.09216 -1.8457,-0.72852 -1.22455,0.43497 -2.10863,1.45193 -3.25196,2.0332 1.03175,-1.82362 2.41141,-3.44572 3.33789,-5.32422 0.17109,-0.83472 -0.69476,-1.66175 -1.5039,-1.57617 z m -0.1543,1.17774 c 0.53212,-0.022 0.52326,0.73747 0.17383,0.98047 -1.26009,1.71994 -2.53294,3.44935 -3.58594,5.30273 -0.19733,0.46498 0.0427,1.22404 0.6543,1.11719 1.13472,-0.14418 1.98406,-1.00427 2.93359,-1.5586 0.65489,-0.44895 1.27937,-1.07175 2.07422,-1.22265 0.45627,0.22512 0.1823,0.87136 -0.2168,1.00586 -4.48063,3.18361 -9.29074,5.91803 -13.51757,9.45703 -0.80104,0.61089 -1.51359,1.38019 -2.36329,1.89844 -0.75367,-0.17487 -0.99361,-1.0434 -1.6289,-1.41797 -0.50911,-0.46633 -1.01877,-0.93529 -1.41992,-1.49024 1.73099,-2.16724 3.11714,-4.59749 4.6582,-6.88086 0.40722,-0.0629 0.46164,0.44781 0.3418,0.72461 -0.18959,1.12024 -0.83639,2.32016 -0.30079,3.44336 0.4622,0.50403 1.15077,0.0457 1.50977,-0.3457 2.11272,-1.76467 4.09352,-3.68681 5.8457,-5.8125 1.55731,-1.79401 3.08101,-3.6038 4.8418,-5.20117 z"
         id="path7018"
         inkscape:connector-curvature="0"
         transform="matrix(2.7386672,0,0,2.7386672,-669.22158,-534.22826)" />
    </g>
    <path
       style="display:inline;opacity:1;fill:#000000;stroke:none;filter:url(#filter6030)"
       d="m 296.16797,351.50391 0,0.002 c -0.133,-0.004 -0.26223,0.003 -0.36719,0.01 -0.13056,-0.002 -0.25999,0.002 -0.39062,0.006 -0.20333,-0.005 -0.40817,-0.006 -0.61133,-0.002 -0.10448,-0.0166 -0.21191,0.0179 -0.30664,0.0781 -2.34192,0.31097 -4.57496,1.52135 -5.92774,3.48632 -1.73918,2.45433 -2.19925,5.69961 -1.33984,8.56836 0.57463,2.10228 1.8655,4.13962 3.92578,5.03516 0.94978,0.42389 1.99497,0.47663 2.9707,0.81641 0.51374,0.12561 1.08721,0.2304 1.63282,0.18945 1.47482,0.0944 2.95777,-0.55409 4.3457,-0.98242 1.82738,-0.69938 2.98886,-2.45025 3.56445,-4.25 1.03212,-2.88445 0.90951,-6.26937 -0.7832,-8.88477 -1.16069,-1.90531 -3.08028,-3.36072 -5.28711,-3.79297 -0.28933,-0.0666 -0.58117,-0.11575 -0.875,-0.15625 -0.1446,-0.0884 -0.35246,-0.11774 -0.55078,-0.12304 z m -0.60547,0.91992 c 0.59232,0.055 1.18993,0.0825 1.75781,0.28125 1.93084,0.43951 3.70194,1.65806 4.71485,3.38476 1.48288,2.33205 1.84767,5.4525 0.58203,7.93555 -0.43666,0.48789 -1.15046,0.17377 -1.47266,-0.2793 -1.58489,-1.43234 -3.18092,-2.85686 -4.83984,-4.20312 0.11676,-0.11434 0.23702,-0.22498 0.35156,-0.3418 0.12504,-0.49818 -0.51056,-0.68873 -0.85156,-0.44336 -0.0897,0.0542 -0.17594,0.11471 -0.26172,0.17383 -0.0625,-0.049 -0.12284,-0.10162 -0.18555,-0.15039 -0.29385,-0.25859 -0.9152,-0.10824 -0.86914,0.30469 0.0844,0.16401 0.18879,0.30853 0.30078,0.44726 -0.57542,0.5081 -1.11269,1.05991 -1.74414,1.49414 -1.30332,1.06979 -2.45148,2.37112 -3.86914,3.26954 -0.78595,0.0393 -0.95923,-0.87438 -1.1289,-1.44922 -1.10296,-3.7982 0.95187,-8.3461 4.64843,-9.80274 0.8973,-0.37841 1.89162,-0.46129 2.86719,-0.62109 z m -0.0156,7.83398 c 0.44398,0.35186 0.92105,0.6764 1.29882,1.0918 1.58712,1.37143 3.33472,2.5893 4.74219,4.14844 0.0757,0.79725 -0.7847,1.20996 -1.31641,1.61718 -1.34963,0.83885 -2.89753,1.10942 -4.41601,1.47852 -2.09818,-0.37137 -4.3394,-0.75868 -5.96094,-2.23437 -0.36159,-0.33148 -0.52458,-0.97078 -0.0273,-1.27149 1.81801,-1.69066 3.84145,-3.15671 5.67969,-4.83008 z"
       id="path7012"
       inkscape:connector-curvature="0"
       transform="matrix(2.7386672,0,0,2.7386672,-669.22158,-534.22826)" />
  </g>
</svg>
